<svg width="512" height="512" viewBox="0 0 512 512" fill="none" xmlns="http://www.w3.org/2000/svg">
<path d="M512 52.9655V476.69C512 496.191 496.191 512 476.69 512H35.3103C15.809 512 0 496.191 0 476.69V52.9655H512Z" fill="#ECF0F1"/>
<path d="M512 52.9655V476.69C512 496.191 496.191 512 476.69 512H35.3103C15.809 512 0 496.191 0 476.69V52.9655H512Z" fill="#B0ECF0"/>
<path d="M512 35.3103V70.6207H0V35.3103C0 15.809 15.809 0 35.3103 0H476.69C496.191 0 512 15.809 512 35.3103Z" fill="#56595E"/>
<path d="M35.4869 44.138C30.6116 44.138 26.6593 40.1857 26.6593 35.3104C26.6593 30.435 30.6116 26.4828 35.4869 26.4828C40.3622 26.4828 44.3145 30.435 44.3145 35.3104C44.3145 40.1857 40.3622 44.138 35.4869 44.138Z" fill="#E64C3C"/>
<path d="M70.7972 44.138C65.9219 44.138 61.9697 40.1857 61.9697 35.3104C61.9697 30.435 65.9219 26.4828 70.7972 26.4828C75.6726 26.4828 79.6248 30.435 79.6248 35.3104C79.6248 40.1857 75.6726 44.138 70.7972 44.138Z" fill="#F0C419"/>
<path d="M106.108 44.138C101.232 44.138 97.28 40.1857 97.28 35.3104C97.28 30.435 101.232 26.4828 106.108 26.4828C110.983 26.4828 114.935 30.435 114.935 35.3104C114.935 40.1857 110.983 44.138 106.108 44.138Z" fill="#24AE5F"/>
<path d="M467.862 52.9655C462.987 52.9655 459.034 49.0133 459.034 44.1379V26.4827C459.034 21.6074 462.987 17.6552 467.862 17.6552C472.737 17.6552 476.69 21.6074 476.69 26.4827V44.1379C476.69 49.0133 472.737 52.9655 467.862 52.9655Z" fill="#BDC3C7"/>
<path d="M476.69 44.138H459.034C454.159 44.138 450.207 40.1857 450.207 35.3104C450.207 30.435 454.159 26.4828 459.034 26.4828H476.69C481.565 26.4828 485.517 30.435 485.517 35.3104C485.517 40.1857 481.565 44.138 476.69 44.138Z" fill="#BDC3C7"/>
<path d="M423.724 44.138H406.069C401.194 44.138 397.241 40.1857 397.241 35.3104C397.241 30.435 401.194 26.4828 406.069 26.4828H423.724C428.599 26.4828 432.552 30.435 432.552 35.3104C432.552 40.1857 428.599 44.138 423.724 44.138Z" fill="#BDC3C7"/>
<path d="M300.138 114.759H52.9655C48.0902 114.759 44.1379 118.711 44.1379 123.586V158.897C44.1379 163.772 48.0902 167.724 52.9655 167.724H300.138C305.013 167.724 308.966 163.772 308.966 158.897V123.586C308.966 118.711 305.013 114.759 300.138 114.759Z" fill="#29B1BA"/>
<path d="M308.966 211.862H52.9655C48.0902 211.862 44.1379 207.91 44.1379 203.034C44.1379 198.159 48.0902 194.207 52.9655 194.207H308.966C313.841 194.207 317.793 198.159 317.793 203.034C317.793 207.91 313.841 211.862 308.966 211.862Z" fill="#3BCAD3"/>
<path d="M282.483 247.172H52.9655C48.0902 247.172 44.1379 243.22 44.1379 238.345C44.1379 233.469 48.0902 229.517 52.9655 229.517H282.483C287.358 229.517 291.31 233.469 291.31 238.345C291.31 243.22 287.358 247.172 282.483 247.172Z" fill="#3BCAD3"/>
<path d="M264.828 282.483H52.9655C48.0902 282.483 44.1379 278.531 44.1379 273.655C44.1379 268.78 48.0902 264.828 52.9655 264.828H264.828C269.703 264.828 273.655 268.78 273.655 273.655C273.655 278.531 269.703 282.483 264.828 282.483Z" fill="#3BCAD3"/>
<path d="M247.172 317.793H52.9655C48.0902 317.793 44.1379 313.841 44.1379 308.966C44.1379 304.09 48.0902 300.138 52.9655 300.138H247.172C252.048 300.138 256 304.09 256 308.966C256 313.841 252.048 317.793 247.172 317.793Z" fill="#3BCAD3"/>
<path d="M283.63 353.104H52.9655C48.0902 353.104 44.1379 357.056 44.1379 361.931V467.862C44.1379 472.737 48.0902 476.69 52.9655 476.69H459.034C463.91 476.69 467.862 472.737 467.862 467.862V361.931C467.862 357.056 463.91 353.104 459.034 353.104H363.52" fill="#3BCAD3"/>
<path d="M340.833 395.917L285.219 443.145C282.465 445.474 278.57 445.893 275.383 444.202C272.196 442.512 270.358 439.052 270.742 435.465L278.422 362.902C314.05 368.896 313.379 367.228 340.833 395.917V395.917Z" fill="#F9EAB0"/>
<path d="M404.657 200.033L313.821 371.641C303.881 366.415 296.951 366.018 278.422 362.902L373.495 183.437L404.657 200.033Z" fill="#F3D55B"/>
<path d="M435.818 216.541L340.833 395.917C333.272 386.351 324.137 378.142 313.821 371.641L404.657 200.033L435.818 216.541Z" fill="#F0C419"/>
<path d="M464.772 161.898L452.414 185.291L390.003 152.276L402.361 128.883C405.644 122.66 411.268 118 417.992 115.929C424.716 113.859 431.987 114.55 438.201 117.848L453.738 126.058C459.961 129.341 464.621 134.965 466.691 141.688C468.762 148.412 468.071 155.684 464.772 161.898V161.898Z" fill="#D75E72"/>
<path d="M452.414 185.291L435.818 216.541C398.415 196.723 412.734 204.332 373.495 183.437L390.003 152.276L452.414 185.291Z" fill="#BDC3C7"/>
<path d="M88.2759 450.207H70.6207C65.7454 450.207 61.7931 446.255 61.7931 441.379C61.7931 436.504 65.7454 432.552 70.6207 432.552H88.2759C93.1512 432.552 97.1035 436.504 97.1035 441.379C97.1035 446.255 93.1512 450.207 88.2759 450.207Z" fill="#9FC9D3"/>
<path d="M141.241 450.207H123.586C118.711 450.207 114.759 446.255 114.759 441.379C114.759 436.504 118.711 432.552 123.586 432.552H141.241C146.117 432.552 150.069 436.504 150.069 441.379C150.069 446.255 146.117 450.207 141.241 450.207Z" fill="#9FC9D3"/>
<path d="M194.207 450.207H176.552C171.676 450.207 167.724 446.255 167.724 441.379C167.724 436.504 171.676 432.552 176.552 432.552H194.207C199.082 432.552 203.034 436.504 203.034 441.379C203.034 446.255 199.082 450.207 194.207 450.207Z" fill="#9FC9D3"/>
<path d="M238.345 450.207H229.517C224.642 450.207 220.69 446.255 220.69 441.379C220.69 436.504 224.642 432.552 229.517 432.552H238.345C243.22 432.552 247.172 436.504 247.172 441.379C247.172 446.255 243.22 450.207 238.345 450.207Z" fill="#9FC9D3"/>
<path d="M335.448 450.207H326.621C321.745 450.207 317.793 446.255 317.793 441.379C317.793 436.504 321.745 432.552 326.621 432.552H335.448C340.324 432.552 344.276 436.504 344.276 441.379C344.276 446.255 340.324 450.207 335.448 450.207Z" fill="#9FC9D3"/>
<path d="M388.414 450.207H370.759C365.883 450.207 361.931 446.255 361.931 441.379C361.931 436.504 365.883 432.552 370.759 432.552H388.414C393.289 432.552 397.241 436.504 397.241 441.379C397.241 446.255 393.289 450.207 388.414 450.207Z" fill="#9FC9D3"/>
<path d="M441.379 450.207H423.724C418.849 450.207 414.897 446.255 414.897 441.379C414.897 436.504 418.849 432.552 423.724 432.552H441.379C446.255 432.552 450.207 436.504 450.207 441.379C450.207 446.255 446.255 450.207 441.379 450.207Z" fill="#9FC9D3"/>
</svg>
