<svg id="Capa_1" enable-background="new 0 0 497.812 497.812" height="512" viewBox="0 0 497.812 497.812" width="512" xmlns="http://www.w3.org/2000/svg"><g><path d="m110.625 348.955.06-31.478c9.153-7.355 15.018-18.635 15.018-31.291v-20.464c0-22.162-17.966-40.128-40.128-40.128-22.162 0-40.128 17.966-40.128 40.128v20.464c0 12.683 5.89 23.984 15.077 31.337v31.431l-56.471 48.636c-1.744 1.502-2.747 3.689-2.747 5.99v26.063c0 3.432 2.458 6.372 5.836 6.98 23.219 4.177 46.689 6.469 70.184 6.907l94.187-4.014v-39.564z" fill="#deecf1"/><path d="m28.179 434.174v-26.063c0-2.301 1.003-4.489 2.747-5.99l50.851-43.794c3.568-3.073 5.62-7.549 5.62-12.258v-16.774c0-4.148-1.478-8.2-4.307-11.234-6.68-7.165-10.771-16.774-10.771-27.344v-20.464c0-19.717 14.224-36.1 32.968-39.478-5.824-3.292-12.546-5.18-19.713-5.18-22.162 0-40.128 17.966-40.128 40.128v20.464c0 12.683 5.89 23.984 15.077 31.337v31.431l-56.47 48.635c-1.744 1.502-2.747 3.689-2.747 5.99v27.207c0 3.223 2.613 5.836 5.836 5.836 8.17 1.47 16.372 2.693 24.594 3.697-2.148-1.235-3.557-3.548-3.557-6.146z" fill="#cbe5e8"/><path d="m393.55 127.526 12.12 23.486c2.383 4.618 8.971 4.658 11.411.07l12.526-23.556h3.936c35.033 0 63.434-28.4 63.434-63.433 0-35.033-28.4-63.434-63.434-63.434h-370.109c-35.034 0-63.434 28.4-63.434 63.434 0 35.033 28.4 63.433 63.434 63.433h3.936l12.526 23.556c2.44 4.588 9.028 4.547 11.411-.07l12.12-23.486z" fill="#dff6fd"/><g><path d="m159.555 126.782h-3.936c-35.033 0-63.434-28.4-63.434-63.433 0-31.724 23.288-58.006 53.7-62.69h-82.451c-35.034 0-63.434 28.4-63.434 63.434 0 35.033 28.4 63.433 63.434 63.433h3.936l12.526 23.556c2.44 4.588 9.028 4.547 11.411-.07l12.12-23.486h56.525z" fill="#c8effe"/></g><path d="m490.041 388.796-53.118-44.547.06-31.478c9.153-7.355 15.018-18.635 15.018-31.29v-20.464c0-22.162-17.966-40.128-40.128-40.128-22.162 0-40.128 17.966-40.128 40.128v20.464c0 12.683 5.89 23.984 15.077 31.337v31.431l-56.471 48.635c-1.744 1.502-2.747 3.689-2.747 5.99v27.207c0 3.223 2.613 5.836 5.836 5.836 23.219 4.177 46.689 6.469 70.184 6.907l80.625-3.436c7.582-.323 13.562-6.563 13.562-14.152v-15.891c.001-6.397-2.847-12.463-7.77-16.549z" fill="#deecf1"/><path d="m360.533 435.019c-3.223 0-5.836-2.613-5.836-5.836v-27.207c0-2.301 1.003-4.489 2.747-5.991l50.101-43.148c4.044-3.483 6.37-8.556 6.37-13.894v-15.196c0-4.526-1.666-8.899-4.704-12.253-6.445-7.117-10.373-16.553-10.373-26.911v-20.464c0-18.977 13.192-34.868 30.892-39.047-5.375-2.674-11.446-4.182-17.857-4.182-22.162 0-40.128 17.966-40.128 40.128v20.464c0 12.683 5.89 23.984 15.077 31.337v31.431l-56.471 48.635c-1.744 1.502-2.747 3.689-2.747 5.99v27.207c0 3.223 2.613 5.836 5.836 5.836 13.778 2.479 27.646 4.277 41.553 5.435-4.828-.705-9.651-1.469-14.46-2.334z" fill="#cbe5e8"/><g id="XMLID_193_"><g><path d="m389.108 453.693v35.161c0 4.583-3.716 8.299-8.299 8.299h-265.642c-4.583 0-8.299-3.716-8.299-8.299v-35.161c0-25.2 11.64-48.98 31.54-64.43l72.19-56.09 7.119-6.747 59.05-1.774 8.611 8.521 72.19 56.09c19.9 15.45 31.54 39.23 31.54 64.43z" fill="#5f99d7"/></g></g><path d="m295.974 341.405-10.596-8.233-8.611-8.521-18.057.542-40.993 1.232-7.119 6.747-72.19 56.09c-19.9 15.45-31.54 39.23-31.54 64.43v35.161c0 4.583 3.716 8.299 8.299 8.299h35.322v-27.44c0-25.2 11.64-48.98 31.54-64.43l11.989-9.315c10.791-8.385 24.957-11.446 38.085-7.65 5.045 1.459 10.375 2.241 15.885 2.241 26.758 0 49.293-18.409 55.615-43.226z" fill="#3c87d0"/><path d="m285.374 333.172c0 20.648-16.738 37.386-37.386 37.386-20.648 0-37.386-16.738-37.386-37.386v-84.22h74.773v84.22z" fill="#ffe5c2"/><path d="m326.768 183.617v-18.074c0-27.239-22.081-49.32-49.32-49.32h-68.154l-6.481-12.398c-1.372-2.625-4.72-3.476-7.179-1.825-15.076 10.12-24.12 27.085-24.12 45.242v36.375l16.84 46.508h120.268z" fill="#a79ba7"/><g><path d="m210.602 189.645v-36.375c0-13.896 5.311-27.081 14.555-37.046h-15.862l-6.481-12.398c-1.372-2.625-4.72-3.476-7.179-1.825-15.076 10.12-24.12 27.085-24.12 45.242v36.375l16.84 46.508h36.905z" fill="#918291"/></g><g><path d="m249.141 331.585c12.797 0 25.024-2.479 36.233-6.975v-75.657h-48.472-4.32-21.982v84.22c0 20.648 16.738 37.386 37.386 37.386 4.629 0 9.083-.855 13.175-2.393-8.363-3.144-15.326-15.6-19.605-25.279-2.372-5.363 1.595-11.309 7.459-11.302z" fill="#fed2a4"/><path d="m171.514 183.617v45.896l11.308 2.356 4.94 36.434 55.887 34.452 23.466 2.6 17.959-2.592c24.777-12.966 41.694-38.903 41.694-68.805v-50.341c-52.039-9.518-103.794-9.625-155.254 0z" fill="#ffe5c2"/><path d="m210.602 225.339v-47.159c-13.048 1.195-26.077 3.004-39.087 5.437v50.341c0 42.872 34.755 77.627 77.627 77.627 12.878 0 25.3-3.28 35.992-8.83-41.302-1.773-74.532-35.678-74.532-77.416z" fill="#fed2a4"/><path d="m170.858 497.153v-38.68c0-4.142-3.358-7.5-7.5-7.5s-7.5 3.358-7.5 7.5v38.68z" fill="#3c87d0"/><path d="m340.118 497.153v-38.68c0-4.142-3.358-7.5-7.5-7.5s-7.5 3.358-7.5 7.5v38.68z" fill="#3c87d0"/><g fill="#99e6fc"><circle cx="119.254" cy="59.996" r="16.84"/><circle cx="205.194" cy="59.996" r="16.84"/><circle cx="377.722" cy="59.996" r="16.84"/><circle cx="291.782" cy="59.996" r="16.84"/></g></g></g></svg>