<svg width="512" height="512" viewBox="0 0 512 512" fill="none" xmlns="http://www.w3.org/2000/svg">
<path d="M342.779 234.305H169.22V442.576H342.779V234.305Z" fill="#CCCCCC"/>
<path d="M169.221 234.305H47.729V442.576H169.221V234.305Z" fill="#E6E6E6"/>
<path d="M464.272 234.305H342.78V442.576H464.272V234.305Z" fill="#E6E6E6"/>
<path d="M264.678 43.39H247.322V112.814H264.678V43.39Z" fill="#C69C6D"/>
<path d="M507.661 477.288H4.33899V512H507.661V477.288Z" fill="#29B1BA"/>
<path d="M481.627 442.576H30.373V477.288H481.627V442.576Z" fill="#3BC1D3"/>
<path d="M65.085 164.881L256 86.78L446.915 164.881H65.085Z" fill="#29B1BA"/>
<path d="M103.078 122.037L215.922 75.851L209.348 59.788L96.5035 105.974L103.078 122.037Z" fill="#B3B3B3"/>
<path d="M68.3723 136.23L84.7648 129.521L78.1903 113.458L61.7979 120.167L68.3723 136.23Z" fill="#B3B3B3"/>
<path d="M256 347.119C284.759 347.119 308.068 370.428 308.068 399.187V442.577H203.932V399.187C203.932 370.428 227.241 347.119 256 347.119Z" fill="#29B1BA"/>
<path d="M282.034 399.186H264.678V416.542H282.034V399.186Z" fill="#3BC1D3"/>
<path d="M247.322 399.186H229.966V416.542H247.322V399.186Z" fill="#3BC1D3"/>
<path d="M99.797 269.017H82.441V286.373H99.797V269.017Z" fill="#B3B3B3"/>
<path d="M134.509 269.017H117.153V286.373H134.509V269.017Z" fill="#B3B3B3"/>
<path d="M99.797 303.729H82.441V321.085H99.797V303.729Z" fill="#B3B3B3"/>
<path d="M134.509 303.729H117.153V321.085H134.509V303.729Z" fill="#B3B3B3"/>
<path d="M229.966 269.017H212.61V286.373H229.966V269.017Z" fill="#B3B3B3"/>
<path d="M264.678 269.017H247.322V286.373H264.678V269.017Z" fill="#B3B3B3"/>
<path d="M299.39 269.017H282.034V286.373H299.39V269.017Z" fill="#B3B3B3"/>
<path d="M229.966 303.729H212.61V321.085H229.966V303.729Z" fill="#B3B3B3"/>
<path d="M264.678 303.729H247.322V321.085H264.678V303.729Z" fill="#B3B3B3"/>
<path d="M299.39 303.729H282.034V321.085H299.39V303.729Z" fill="#B3B3B3"/>
<path d="M99.797 355.797H82.441V373.153H99.797V355.797Z" fill="#B3B3B3"/>
<path d="M134.509 355.797H117.153V373.153H134.509V355.797Z" fill="#B3B3B3"/>
<path d="M99.797 390.508H82.441V407.864H99.797V390.508Z" fill="#B3B3B3"/>
<path d="M134.509 390.508H117.153V407.864H134.509V390.508Z" fill="#B3B3B3"/>
<path d="M429.559 269.017H412.203V286.373H429.559V269.017Z" fill="#B3B3B3"/>
<path d="M394.848 269.017H377.492V286.373H394.848V269.017Z" fill="#B3B3B3"/>
<path d="M429.559 303.729H412.203V321.085H429.559V303.729Z" fill="#B3B3B3"/>
<path d="M394.848 303.729H377.492V321.085H394.848V303.729Z" fill="#B3B3B3"/>
<path d="M429.559 355.797H412.203V373.153H429.559V355.797Z" fill="#B3B3B3"/>
<path d="M394.848 355.797H377.492V373.153H394.848V355.797Z" fill="#B3B3B3"/>
<path d="M429.559 390.508H412.203V407.864H429.559V390.508Z" fill="#B3B3B3"/>
<path d="M394.848 390.508H377.492V407.864H394.848V390.508Z" fill="#B3B3B3"/>
<path d="M325.424 52.068H256C251.21 52.068 247.322 48.18 247.322 43.39V8.678C247.322 3.888 251.21 0 256 0H325.424C330.214 0 334.102 3.888 334.102 8.678V43.39C334.102 48.18 330.214 52.068 325.424 52.068Z" fill="#29B1BA"/>
<path d="M507.661 286.373H490.305V364.475H507.661V286.373Z" fill="#B3B3B3"/>
<path d="M507.661 381.831H490.305V399.187H507.661V381.831Z" fill="#B3B3B3"/>
<path d="M481.627 199.593H30.373V234.305H481.627V199.593Z" fill="#29B1BA"/>
<path d="M464.271 164.881H47.729V199.593H464.271V164.881Z" fill="#3BC1D3"/>
</svg>
