<svg width="70" height="70" viewBox="0 0 70 70" fill="none" xmlns="http://www.w3.org/2000/svg">
<g id="planet">
<path id="Vector" fill-rule="evenodd" clip-rule="evenodd" d="M21.7297 55.7735C33.2816 63.0465 48.596 59.5798 55.8478 48.0502C63.0809 36.5504 59.5787 21.2369 48.0268 13.964C36.5047 6.70974 21.1903 10.1764 13.9572 21.6763C6.70541 33.2059 10.2076 48.5193 21.7297 55.7735Z" fill="#FF6666"/>
<path id="Vector_2" fill-rule="evenodd" clip-rule="evenodd" d="M48.0718 13.8522C59.6282 21.1602 63.1089 36.4567 55.8696 48.0089C48.6116 59.5909 33.3763 63.0519 21.8199 55.7439C20.0652 53.8444 15.8626 50.6879 17.807 49.1737C18.7792 48.4166 20.7135 51.5522 23.3271 53.5375C26.8429 56.135 31.1714 57.8329 32.3633 56.9237C34.1067 55.5318 28.9339 53.9236 23.992 50.4243C18.1368 46.2644 12.3047 40.0819 14.2554 37.3662C15.7474 35.3164 20.1023 41.9365 25.7675 46.2673C31.5328 50.703 38.627 52.8196 41.1928 49.4534C43.7958 46.0276 37.3056 43.2121 30.566 38.7424C24.2721 34.5544 17.5238 27.2522 19.682 23.2126C21.9971 18.8564 27.4507 24.7163 33.7046 28.5048C40.0179 32.3308 47.1798 34.0745 48.6928 29.211C49.5166 26.5725 44.9075 25.6533 40.1722 22.9499C35.4071 20.2276 30.4675 15.732 31.3051 13.601C32.8905 9.61488 43.3951 11.5185 48.0718 13.8522Z" fill="#C43F57"/>
<path id="Vector_3" fill-rule="evenodd" clip-rule="evenodd" d="M47.5421 14.0563C48.2209 14.4905 48.8811 14.9546 49.4934 15.4299C49.3459 15.3355 49.1688 15.2223 49.0212 15.1279C37.5416 7.78552 22.4255 11.2973 15.2378 22.9764C8.47502 33.965 11.1652 48.2381 21.0537 56.0273C9.95805 48.5958 6.66329 33.4338 13.7586 21.9048C20.9759 10.2446 36.0921 6.73283 47.5421 14.0563Z" fill="#DF99FF"/>
</g>
</svg>
