<svg width="1178" height="369" viewBox="0 0 1178 369" fill="none" xmlns="http://www.w3.org/2000/svg">
<g id="stars5">
<path id="Vector" fill-rule="evenodd" clip-rule="evenodd" d="M686.5 41C686.765 41 687 40.7647 687 40.5C687 40.2353 686.794 40 686.5 40C686.235 40 686 40.2353 686 40.5C686 40.7941 686.206 41 686.5 41Z" fill="white"/>
<path id="Vector_2" fill-rule="evenodd" clip-rule="evenodd" d="M830.5 108C830.765 108 831 107.765 831 107.5C831 107.235 830.794 107 830.5 107C830.235 107 830 107.235 830 107.5C830 107.794 830.206 108 830.5 108Z" fill="white"/>
<path id="Vector_3" fill-rule="evenodd" clip-rule="evenodd" d="M810.5 30C810.765 30 811 29.7647 811 29.5C811 29.2353 810.794 29 810.5 29C810.235 29 810 29.2353 810 29.5C810 29.7941 810.206 30 810.5 30Z" fill="white"/>
<path id="Vector_4" fill-rule="evenodd" clip-rule="evenodd" d="M882.5 118C882.765 118 883 117.765 883 117.5C883 117.235 882.794 117 882.5 117C882.235 117 882 117.235 882 117.5C882 117.794 882.206 118 882.5 118Z" fill="white"/>
<path id="Vector_5" fill-rule="evenodd" clip-rule="evenodd" d="M842.5 158C842.765 158 843 157.765 843 157.5C843 157.235 842.794 157 842.5 157C842.235 157 842 157.235 842 157.5C842 157.794 842.206 158 842.5 158Z" fill="white"/>
<path id="Vector_6" fill-rule="evenodd" clip-rule="evenodd" d="M21.5 203C21.7647 203 22 202.765 22 202.5C22 202.235 21.7941 202 21.5 202C21.2353 202 21 202.235 21 202.5C21 202.794 21.2059 203 21.5 203Z" fill="white"/>
<path id="Vector_7" fill-rule="evenodd" clip-rule="evenodd" d="M760.5 69C760.765 69 761 68.7647 761 68.5C761 68.2353 760.794 68 760.5 68C760.235 68 760 68.2353 760 68.5C760 68.7941 760.206 69 760.5 69Z" fill="white"/>
<path id="Vector_8" fill-rule="evenodd" clip-rule="evenodd" d="M831.5 82C831.765 82 832 81.7647 832 81.5C832 81.2353 831.794 81 831.5 81C831.235 81 831 81.2353 831 81.5C831 81.7941 831.206 82 831.5 82Z" fill="white"/>
<path id="Vector_9" fill-rule="evenodd" clip-rule="evenodd" d="M752.5 150C752.765 150 753 149.765 753 149.5C753 149.235 752.794 149 752.5 149C752.235 149 752 149.235 752 149.5C752 149.794 752.206 150 752.5 150Z" fill="white"/>
<path id="Vector_10" fill-rule="evenodd" clip-rule="evenodd" d="M883.5 185C883.765 185 884 184.765 884 184.5C884 184.235 883.794 184 883.5 184C883.235 184 883 184.235 883 184.5C883 184.794 883.206 185 883.5 185Z" fill="white"/>
<path id="Vector_11" fill-rule="evenodd" clip-rule="evenodd" d="M818.5 217C818.765 217 819 216.765 819 216.5C819 216.235 818.794 216 818.5 216C818.235 216 818 216.235 818 216.5C818 216.794 818.206 217 818.5 217Z" fill="white"/>
<path id="Vector_12" fill-rule="evenodd" clip-rule="evenodd" d="M778.5 195C778.765 195 779 194.765 779 194.5C779 194.235 778.794 194 778.5 194C778.235 194 778 194.235 778 194.5C778 194.794 778.206 195 778.5 195Z" fill="white"/>
<path id="Vector_13" fill-rule="evenodd" clip-rule="evenodd" d="M923.5 266C923.765 266 924 265.765 924 265.5C924 265.235 923.794 265 923.5 265C923.235 265 923 265.235 923 265.5C923 265.794 923.206 266 923.5 266Z" fill="white"/>
<path id="Vector_14" fill-rule="evenodd" clip-rule="evenodd" d="M968.5 251C968.765 251 969 250.765 969 250.5C969 250.235 968.794 250 968.5 250C968.235 250 968 250.235 968 250.5C968 250.794 968.206 251 968.5 251Z" fill="white"/>
<path id="Vector_15" fill-rule="evenodd" clip-rule="evenodd" d="M923.5 250C923.765 250 924 249.765 924 249.5C924 249.235 923.794 249 923.5 249C923.235 249 923 249.235 923 249.5C923 249.794 923.206 250 923.5 250Z" fill="white"/>
<path id="Vector_16" fill-rule="evenodd" clip-rule="evenodd" d="M16.5 3C16.7647 3 17 2.7647 17 2.5C17 2.23529 16.7941 2 16.5 2C16.2353 2 16 2.23529 16 2.5C16 2.79411 16.2059 3 16.5 3Z" fill="white"/>
<path id="Vector_17" fill-rule="evenodd" clip-rule="evenodd" d="M1035.5 81C1035.76 81 1036 80.7647 1036 80.5C1036 80.2353 1035.79 80 1035.5 80C1035.24 80 1035 80.2353 1035 80.5C1035 80.7941 1035.21 81 1035.5 81Z" fill="white"/>
<path id="Vector_18" fill-rule="evenodd" clip-rule="evenodd" d="M365.5 225C365.765 225 366 224.765 366 224.5C366 224.235 365.794 224 365.5 224C365.235 224 365 224.235 365 224.5C365 224.794 365.206 225 365.5 225Z" fill="white"/>
<path id="Vector_19" fill-rule="evenodd" clip-rule="evenodd" d="M1.50002 365C1.76472 365 2 364.765 2 364.5C2 364.235 1.79413 364 1.50002 364C1.23531 364 1 364.235 1 364.5C1 364.794 1.2059 365 1.50002 365Z" fill="white"/>
<path id="Vector_20" fill-rule="evenodd" clip-rule="evenodd" d="M142.5 178C142.765 178 143 177.765 143 177.5C143 177.235 142.794 177 142.5 177C142.235 177 142 177.235 142 177.5C142 177.794 142.206 178 142.5 178Z" fill="white"/>
<path id="Vector_21" fill-rule="evenodd" clip-rule="evenodd" d="M259.5 40C259.765 40 260 39.7647 260 39.5C260 39.2353 259.794 39 259.5 39C259.235 39 259 39.2353 259 39.5C259 39.7941 259.206 40 259.5 40Z" fill="white"/>
<path id="Vector_22" fill-rule="evenodd" clip-rule="evenodd" d="M298.5 227C298.765 227 299 226.765 299 226.5C299 226.235 298.794 226 298.5 226C298.235 226 298 226.235 298 226.5C298 226.794 298.206 227 298.5 227Z" fill="white"/>
<path id="Vector_23" fill-rule="evenodd" clip-rule="evenodd" d="M595.5 39C595.765 39 596 38.7647 596 38.5C596 38.2353 595.794 38 595.5 38C595.235 38 595 38.2353 595 38.5C595 38.7941 595.206 39 595.5 39Z" fill="white"/>
<path id="Vector_24" fill-rule="evenodd" clip-rule="evenodd" d="M437.5 1C437.765 1 438 0.764702 438 0.499995C438 0.235289 437.794 0 437.5 0C437.235 0 437 0.235289 437 0.499995C437 0.794114 437.206 1 437.5 1Z" fill="white"/>
<path id="Vector_25" fill-rule="evenodd" clip-rule="evenodd" d="M512.5 3C512.765 3 513 2.7647 513 2.5C513 2.23529 512.794 2 512.5 2C512.235 2 512 2.23529 512 2.5C512 2.79411 512.206 3 512.5 3Z" fill="white"/>
<path id="Vector_26" fill-rule="evenodd" clip-rule="evenodd" d="M532.5 28C532.765 28 533 27.7647 533 27.5C533 27.2353 532.794 27 532.5 27C532.235 27 532 27.2353 532 27.5C532 27.7941 532.206 28 532.5 28Z" fill="white"/>
<path id="Vector_27" fill-rule="evenodd" clip-rule="evenodd" d="M433.5 96C433.765 96 434 95.7647 434 95.5C434 95.2353 433.794 95 433.5 95C433.235 95 433 95.2353 433 95.5C433 95.7941 433.206 96 433.5 96Z" fill="white"/>
<path id="Vector_28" fill-rule="evenodd" clip-rule="evenodd" d="M936.5 43C936.765 43 937 42.7647 937 42.5C937 42.2353 936.794 42 936.5 42C936.235 42 936 42.2353 936 42.5C936 42.7941 936.206 43 936.5 43Z" fill="white"/>
<path id="Vector_29" fill-rule="evenodd" clip-rule="evenodd" d="M924.5 19C924.765 19 925 18.7647 925 18.5C925 18.2353 924.794 18 924.5 18C924.235 18 924 18.2353 924 18.5C924 18.7941 924.206 19 924.5 19Z" fill="white"/>
<path id="Vector_30" fill-rule="evenodd" clip-rule="evenodd" d="M513.5 72C513.765 72 514 71.7647 514 71.5C514 71.2353 513.794 71 513.5 71C513.235 71 513 71.2353 513 71.5C513 71.7941 513.206 72 513.5 72Z" fill="white"/>
<path id="Vector_31" fill-rule="evenodd" clip-rule="evenodd" d="M421.5 62C421.765 62 422 61.7647 422 61.5C422 61.2353 421.794 61 421.5 61C421.235 61 421 61.2353 421 61.5C421 61.7941 421.206 62 421.5 62Z" fill="white"/>
<path id="Vector_32" fill-rule="evenodd" clip-rule="evenodd" d="M373.5 9C373.765 9 374 8.7647 374 8.5C374 8.23529 373.794 8 373.5 8C373.235 8 373 8.23529 373 8.5C373 8.79411 373.206 9 373.5 9Z" fill="white"/>
<path id="Vector_33" fill-rule="evenodd" clip-rule="evenodd" d="M964.5 31C964.765 31 965 30.7647 965 30.5C965 30.2353 964.794 30 964.5 30C964.235 30 964 30.2353 964 30.5C964 30.7941 964.206 31 964.5 31Z" fill="white"/>
<path id="Vector_34" fill-rule="evenodd" clip-rule="evenodd" d="M193.5 207C193.765 207 194 206.765 194 206.5C194 206.235 193.794 206 193.5 206C193.235 206 193 206.235 193 206.5C193 206.794 193.206 207 193.5 207Z" fill="white"/>
<path id="Vector_35" fill-rule="evenodd" clip-rule="evenodd" d="M1177.5 369C1177.76 369 1178 368.765 1178 368.5C1178 368.235 1177.79 368 1177.5 368C1177.24 368 1177 368.235 1177 368.5C1177 368.794 1177.21 369 1177.5 369Z" fill="white"/>
<path id="Vector_36" fill-rule="evenodd" clip-rule="evenodd" d="M0.500018 162C0.764722 162 1 161.765 1 161.5C1 161.235 0.794134 161 0.500018 161C0.235314 161 0 161.235 0 161.5C0 161.794 0.205902 162 0.500018 162Z" fill="white"/>
<path id="Vector_37" fill-rule="evenodd" clip-rule="evenodd" d="M1176.5 12C1176.76 12 1177 11.7647 1177 11.5C1177 11.2353 1176.79 11 1176.5 11C1176.24 11 1176 11.2353 1176 11.5C1176 11.7941 1176.21 12 1176.5 12Z" fill="white"/>
<path id="Vector_38" fill-rule="evenodd" clip-rule="evenodd" d="M382.5 287C382.765 287 383 286.765 383 286.5C383 286.235 382.794 286 382.5 286C382.235 286 382 286.235 382 286.5C382 286.794 382.206 287 382.5 287Z" fill="white"/>
<path id="Vector_39" fill-rule="evenodd" clip-rule="evenodd" d="M276.5 149C276.765 149 277 148.765 277 148.5C277 148.235 276.794 148 276.5 148C276.235 148 276 148.235 276 148.5C276 148.794 276.206 149 276.5 149Z" fill="white"/>
<path id="Vector_40" fill-rule="evenodd" clip-rule="evenodd" d="M377.5 168C377.765 168 378 167.765 378 167.5C378 167.235 377.794 167 377.5 167C377.235 167 377 167.235 377 167.5C377 167.794 377.206 168 377.5 168Z" fill="white"/>
<path id="Vector_41" fill-rule="evenodd" clip-rule="evenodd" d="M576.5 262C576.765 262 577 261.765 577 261.5C577 261.235 576.794 261 576.5 261C576.235 261 576 261.235 576 261.5C576 261.794 576.206 262 576.5 262Z" fill="white"/>
<path id="Vector_42" fill-rule="evenodd" clip-rule="evenodd" d="M461.5 350C461.765 350 462 349.765 462 349.5C462 349.235 461.794 349 461.5 349C461.235 349 461 349.235 461 349.5C461 349.794 461.206 350 461.5 350Z" fill="white"/>
<path id="Vector_43" fill-rule="evenodd" clip-rule="evenodd" d="M427.5 366C427.765 366 428 365.765 428 365.5C428 365.235 427.794 365 427.5 365C427.235 365 427 365.235 427 365.5C427 365.794 427.206 366 427.5 366Z" fill="white"/>
<path id="Vector_44" fill-rule="evenodd" clip-rule="evenodd" d="M473.5 293C473.765 293 474 292.765 474 292.5C474 292.235 473.794 292 473.5 292C473.235 292 473 292.235 473 292.5C473 292.794 473.206 293 473.5 293Z" fill="white"/>
<path id="Vector_45" fill-rule="evenodd" clip-rule="evenodd" d="M241.5 348C241.765 348 242 347.765 242 347.5C242 347.235 241.794 347 241.5 347C241.235 347 241 347.235 241 347.5C241 347.794 241.206 348 241.5 348Z" fill="white"/>
<path id="Vector_46" fill-rule="evenodd" clip-rule="evenodd" d="M193.5 302C193.765 302 194 301.765 194 301.5C194 301.235 193.794 301 193.5 301C193.235 301 193 301.235 193 301.5C193 301.794 193.206 302 193.5 302Z" fill="white"/>
<path id="Vector_47" fill-rule="evenodd" clip-rule="evenodd" d="M207.5 364C207.765 364 208 363.765 208 363.5C208 363.235 207.794 363 207.5 363C207.235 363 207 363.235 207 363.5C207 363.794 207.206 364 207.5 364Z" fill="white"/>
<path id="Vector_48" fill-rule="evenodd" clip-rule="evenodd" d="M1074.5 66C1074.76 66 1075 65.7647 1075 65.5C1075 65.2353 1074.79 65 1074.5 65C1074.24 65 1074 65.2353 1074 65.5C1074 65.7941 1074.21 66 1074.5 66Z" fill="white"/>
<path id="Vector_49" fill-rule="evenodd" clip-rule="evenodd" d="M1126.5 72C1126.76 72 1127 71.7647 1127 71.5C1127 71.2353 1126.79 71 1126.5 71C1126.24 71 1126 71.2353 1126 71.5C1126 71.7941 1126.21 72 1126.5 72Z" fill="white"/>
<path id="Vector_50" fill-rule="evenodd" clip-rule="evenodd" d="M1125.5 119C1125.76 119 1126 118.765 1126 118.5C1126 118.235 1125.79 118 1125.5 118C1125.24 118 1125 118.235 1125 118.5C1125 118.794 1125.21 119 1125.5 119Z" fill="white"/>
<path id="Vector_51" fill-rule="evenodd" clip-rule="evenodd" d="M122.5 34C122.765 34 123 33.7647 123 33.5C123 33.2353 122.794 33 122.5 33C122.235 33 122 33.2353 122 33.5C122 33.7941 122.206 34 122.5 34Z" fill="white"/>
<path id="Vector_52" fill-rule="evenodd" clip-rule="evenodd" d="M779.5 95C779.765 95 780 94.7647 780 94.5C780 94.2353 779.794 94 779.5 94C779.235 94 779 94.2353 779 94.5C779 94.7941 779.206 95 779.5 95Z" fill="white"/>
<path id="Vector_53" fill-rule="evenodd" clip-rule="evenodd" d="M730.5 100C730.765 100 731 99.7647 731 99.5C731 99.2353 730.794 99 730.5 99C730.235 99 730 99.2353 730 99.5C730 99.7941 730.206 100 730.5 100Z" fill="white"/>
<path id="Vector_54" fill-rule="evenodd" clip-rule="evenodd" d="M798.5 118C798.765 118 799 117.765 799 117.5C799 117.235 798.794 117 798.5 117C798.235 117 798 117.235 798 117.5C798 117.794 798.206 118 798.5 118Z" fill="white"/>
</g>
</svg>
