<svg width="1320" height="684" viewBox="0 0 1320 684" fill="none" xmlns="http://www.w3.org/2000/svg">
<g id="Stars">
<path id="Vector" fill-rule="evenodd" clip-rule="evenodd" d="M895.172 637.343C896.337 637.343 897.344 636.389 897.344 635.171C897.344 634.006 896.337 633 895.172 633C893.953 633 893 634.006 893 635.171C893 636.336 893.953 637.343 895.172 637.343Z" fill="white"/>
<path id="Vector_2" fill-rule="evenodd" clip-rule="evenodd" d="M479.172 521.343C480.337 521.343 481.344 520.389 481.344 519.171C481.344 518.006 480.337 517 479.172 517C477.953 517 477 518.006 477 519.171C477 520.336 477.953 521.343 479.172 521.343Z" fill="#FFCC00"/>
<path id="Vector_3" fill-rule="evenodd" clip-rule="evenodd" d="M266.172 611.343C267.337 611.343 268.344 610.389 268.344 609.171C268.344 608.006 267.337 607 266.172 607C264.953 607 264 608.006 264 609.171C264 610.336 264.953 611.343 266.172 611.343Z" fill="white"/>
<path id="Vector_4" fill-rule="evenodd" clip-rule="evenodd" d="M1196.17 4.34265C1197.34 4.34265 1198.34 3.38937 1198.34 2.17131C1198.34 1.00621 1197.34 0 1196.17 0C1194.95 0 1194 1.00621 1194 2.17131C1194 3.33641 1194.95 4.34265 1196.17 4.34265Z" fill="white"/>
<path id="Vector_5" fill-rule="evenodd" clip-rule="evenodd" d="M218.172 267.343C219.337 267.343 220.344 266.389 220.344 265.171C220.344 264.006 219.337 263 218.172 263C216.953 263 216 264.006 216 265.171C216 266.336 216.953 267.343 218.172 267.343Z" fill="white"/>
<path id="Vector_6" fill-rule="evenodd" clip-rule="evenodd" d="M405.172 203.343C406.337 203.343 407.344 202.389 407.344 201.171C407.344 200.006 406.337 199 405.172 199C403.953 199 403 200.006 403 201.171C403 202.336 403.953 203.343 405.172 203.343Z" fill="white"/>
<path id="Vector_7" fill-rule="evenodd" clip-rule="evenodd" d="M1194.9 551.801C1195.38 551.801 1195.8 551.377 1195.8 550.9C1195.8 550.424 1195.43 550 1194.9 550C1194.42 550 1194 550.424 1194 550.9C1194 551.43 1194.37 551.801 1194.9 551.801Z" fill="white"/>
<path id="Vector_8" fill-rule="evenodd" clip-rule="evenodd" d="M220.901 75.8006C221.377 75.8006 221.801 75.3769 221.801 74.9003C221.801 74.4237 221.43 74 220.901 74C220.424 74 220 74.4237 220 74.9003C220 75.4299 220.371 75.8006 220.901 75.8006Z" fill="white"/>
<path id="Vector_9" fill-rule="evenodd" clip-rule="evenodd" d="M1232.9 424.801C1233.38 424.801 1233.8 424.377 1233.8 423.9C1233.8 423.424 1233.43 423 1232.9 423C1232.42 423 1232 423.424 1232 423.9C1232 424.43 1232.37 424.801 1232.9 424.801Z" fill="white"/>
<path id="Vector_10" fill-rule="evenodd" clip-rule="evenodd" d="M648.901 296.801C649.377 296.801 649.801 296.377 649.801 295.9C649.801 295.424 649.43 295 648.901 295C648.424 295 648 295.424 648 295.9C648 296.43 648.371 296.801 648.901 296.801Z" fill="white"/>
<path id="Vector_11" fill-rule="evenodd" clip-rule="evenodd" d="M730.901 320.801C731.377 320.801 731.801 320.377 731.801 319.9C731.801 319.424 731.43 319 730.901 319C730.424 319 730 319.424 730 319.9C730 320.43 730.371 320.801 730.901 320.801Z" fill="white"/>
<path id="Vector_12" fill-rule="evenodd" clip-rule="evenodd" d="M475.901 683.801C476.377 683.801 476.801 683.377 476.801 682.9C476.801 682.424 476.43 682 475.901 682C475.424 682 475 682.424 475 682.9C475 683.43 475.371 683.801 475.901 683.801Z" fill="#FFCC00"/>
<path id="Vector_13" fill-rule="evenodd" clip-rule="evenodd" d="M10.9005 136.801C11.3772 136.801 11.801 136.377 11.801 135.9C11.801 135.424 11.4302 135 10.9005 135C10.4238 135 10 135.424 10 135.9C10 136.43 10.3708 136.801 10.9005 136.801Z" fill="white"/>
<path id="Vector_14" fill-rule="evenodd" clip-rule="evenodd" d="M389.901 21.8006C390.377 21.8006 390.801 21.3769 390.801 20.9003C390.801 20.4237 390.43 20 389.901 20C389.424 20 389 20.4237 389 20.9003C389 21.4299 389.371 21.8006 389.901 21.8006Z" fill="white"/>
<path id="Vector_15" fill-rule="evenodd" clip-rule="evenodd" d="M949.901 222.801C950.377 222.801 950.801 222.377 950.801 221.9C950.801 221.424 950.43 221 949.901 221C949.424 221 949 221.424 949 221.9C949 222.43 949.371 222.801 949.901 222.801Z" fill="white"/>
<path id="Vector_16" fill-rule="evenodd" clip-rule="evenodd" d="M27.9005 23.8006C28.3772 23.8006 28.801 23.3769 28.801 22.9003C28.801 22.4237 28.4302 22 27.9005 22C27.4238 22 27 22.4237 27 22.9003C27 23.4299 27.3708 23.8006 27.9005 23.8006Z" fill="#FFCC00"/>
<path id="Vector_17" fill-rule="evenodd" clip-rule="evenodd" d="M0.900514 579.801C1.37724 579.801 1.80096 579.377 1.80096 578.9C1.80096 578.424 1.43021 578 0.900514 578C0.423792 578 0 578.424 0 578.9C0 579.43 0.370823 579.801 0.900514 579.801Z" fill="white"/>
<path id="Vector_18" fill-rule="evenodd" clip-rule="evenodd" d="M285.901 380.801C286.377 380.801 286.801 380.377 286.801 379.9C286.801 379.424 286.43 379 285.901 379C285.424 379 285 379.424 285 379.9C285 380.43 285.371 380.801 285.901 380.801Z" fill="white"/>
<path id="blinking-star3" fill-rule="evenodd" clip-rule="evenodd" d="M113.172 444.343C114.337 444.343 115.344 443.389 115.344 442.171C115.344 441.006 114.337 440 113.172 440C111.953 440 111 441.006 111 442.171C111 443.336 111.953 444.343 113.172 444.343Z" fill="#FFF100"/>
<path id="bliking-star2" fill-rule="evenodd" clip-rule="evenodd" d="M1317.17 601.343C1318.34 601.343 1319.34 600.389 1319.34 599.171C1319.34 598.006 1318.34 597 1317.17 597C1315.95 597 1315 598.006 1315 599.171C1315 600.336 1315.95 601.343 1317.17 601.343Z" fill="white"/>
<path id="blinking-star1" fill-rule="evenodd" clip-rule="evenodd" d="M691.5 94C693.915 94 696 92.0244 696 89.5C696 87.0853 693.915 85 691.5 85C688.976 85 687 87.0853 687 89.5C687 91.9146 688.976 94 691.5 94Z" fill="#FFCC00"/>
<path id="Vector_19" fill-rule="evenodd" clip-rule="evenodd" d="M1161.17 279.343C1162.34 279.343 1163.34 278.389 1163.34 277.171C1163.34 276.006 1162.34 275 1161.17 275C1159.95 275 1159 276.006 1159 277.171C1159 278.336 1159.95 279.343 1161.17 279.343Z" fill="white"/>
<path id="Vector_20" fill-rule="evenodd" clip-rule="evenodd" d="M968.172 74.3426C969.337 74.3426 970.344 73.3894 970.344 72.1713C970.344 71.0062 969.337 70 968.172 70C966.953 70 966 71.0062 966 72.1713C966 73.3364 966.953 74.3426 968.172 74.3426Z" fill="white"/>
</g>
</svg>
