<svg width="48" height="48" viewBox="0 0 48 48" fill="none" xmlns="http://www.w3.org/2000/svg">
<path d="M40.1071 12.15C40.0421 12.048 39.9681 11.968 39.8711 11.895C39.1021 11.317 35.2001 8.55603 30.2061 8.02003C30.1961 8.01903 30.1581 8.01703 30.1491 8.01703C30.0511 8.01703 29.9661 8.07403 29.9251 8.15703L29.6561 8.69503H29.6551C29.6381 8.72803 29.6291 8.76603 29.6291 8.80603C29.6291 8.91503 29.6991 9.00803 29.7971 9.04203C29.8031 9.04403 29.8451 9.05303 29.8601 9.05603C34.1271 10.084 36.7231 11.946 39.0091 14.001C34.9621 11.935 30.9651 10 24.0001 10C17.0351 10 13.0391 11.936 8.99105 14.001C11.2771 11.946 13.8731 10.084 18.1401 9.05603C18.1551 9.05203 18.1971 9.04403 18.2031 9.04203C18.3011 9.00803 18.3711 8.91503 18.3711 8.80603C18.3711 8.76603 18.3621 8.72803 18.3451 8.69503H18.3441L18.0751 8.15703C18.0341 8.07403 17.9501 8.01703 17.8511 8.01703C17.8421 8.01703 17.8031 8.01903 17.7941 8.02003C12.8001 8.55603 8.89805 11.317 8.12905 11.895C8.03205 11.968 7.95905 12.048 7.89305 12.15C7.18505 13.257 2.84405 20.538 2.00105 33.782C1.99205 33.924 2.04105 34.071 2.13605 34.177C6.72805 39.321 13.3181 39.929 14.7241 40C14.8911 40.008 15.0511 39.935 15.1511 39.801L16.4331 38.092C16.5331 37.958 16.4791 37.77 16.3221 37.713C13.6171 36.727 10.6051 35.013 7.99005 32.007C11.2311 34.457 16.1201 37 24.0001 37C31.8801 37 36.7691 34.457 40.0091 32.007C37.3931 35.013 34.3821 36.726 31.6771 37.713C31.5201 37.77 31.4661 37.958 31.5661 38.092L32.8481 39.801C32.9491 39.935 33.1081 40.009 33.2751 40C34.6821 39.928 41.2711 39.321 45.8631 34.177C45.9581 34.071 46.0071 33.924 45.9981 33.782C45.1561 20.538 40.8151 13.257 40.1071 12.15Z" fill="white"/>
<path d="M30.5 30C32.433 30 34 28.2091 34 26C34 23.7909 32.433 22 30.5 22C28.567 22 27 23.7909 27 26C27 28.2091 28.567 30 30.5 30Z" fill="#7289DA"/>
<path d="M17.5 30C19.433 30 21 28.2091 21 26C21 23.7909 19.433 22 17.5 22C15.567 22 14 23.7909 14 26C14 28.2091 15.567 30 17.5 30Z" fill="#7289DA"/>
</svg>
