<svg width="1280" height="127" viewBox="0 0 1280 127" fill="none" xmlns="http://www.w3.org/2000/svg">
<g id="mountains">
<path id="Vector 4" d="M-119 76.5688C-54.5 37.0688 77.351 -29.9949 213.5 32.701C332 87.2696 516.453 107.97 642.5 82.5C821 46.431 833.046 31.5032 1071 3.0002C1342.32 -29.4993 1448.99 223.335 1476.94 253.147C1481.14 255.729 1482.37 256.82 1480 255.661C1479.11 255.226 1478.09 254.376 1476.94 253.147C1449.23 236.119 1292.29 154.231 1186.5 225L-139 198.799L-119 76.5688Z" fill="#0E211C"/>
<path id="Vector 5" d="M-108 229.001C-36.6667 181.168 -32.7164 6.44794 98.5 44.0011C293.5 99.8087 475.284 114.662 603.5 104.799C750.632 93.481 850.304 71.509 1058.85 25.5374L1069 23.2991C1273.01 -21.6674 1426.9 149.878 1478.66 203.107C1495.82 211.653 1501.95 221.4 1495 218C1492.03 216.549 1486.53 211.194 1478.66 203.107C1451.39 189.53 1396.27 178.984 1321.5 229.001H79.5H-108Z" fill="#233731"/>
</g>
</svg>
