<svg width="30" height="28" viewBox="0 0 30 28" fill="none" xmlns="http://www.w3.org/2000/svg">
<g id="rocket">
<path id="flame" fill-rule="evenodd" clip-rule="evenodd" d="M4.59512 20.4604L4.84566 20.079C4.92033 19.8629 4.88958 20.0588 4.87988 19.8257C4.52144 20.136 4.25731 20.5613 3.8855 20.7974C3.84551 20.5068 5.13592 18.2721 5.56198 17.9112L6.05951 17.2396L6.23538 17.0743C5.97203 17.0773 5.75211 17.3304 5.47853 17.3875C5.97963 16.6078 5.99722 16.2194 7.04496 15.6126C8.19071 14.9451 8.72019 15.27 8.99743 15.0541L12.3766 19.0237L12.8314 19.5478C12.7603 19.6558 12.6207 20.2873 12.5427 20.4932C12.122 21.6176 10.8811 22.6261 9.98969 22.669L10.4905 22.0244C10.4737 22.0244 10.4601 22.0514 10.4399 22.0413C10.4196 22.0311 10.3993 22.0547 10.3892 22.0581C10.3149 22.0884 10.3284 22.0783 10.2371 22.1255C9.29085 22.6479 9.75034 22.4728 8.42573 23.0928C8.08105 23.2579 6.84439 23.7868 6.39883 23.7323C6.56477 23.4521 7.21673 23.2637 7.23419 22.9428C6.57189 23.2528 5.85906 23.4952 5.22402 23.6667L3.27527 24.0327C3.16394 23.9853 3.19431 23.992 3.11003 23.9244C3.29335 23.374 3.41259 22.783 3.6939 22.1888C3.90402 21.7533 4.2466 20.8856 4.59512 20.4604Z" fill="#EF8721"/>
<path id="Vector" fill-rule="evenodd" clip-rule="evenodd" d="M11.7945 14.0647L12.5439 15.0366C13.025 14.9601 12.8571 14.054 13.5533 14.0362C14.7334 14.0094 15.4749 14.79 15.379 15.8875C15.3403 16.3738 15.1134 16.5975 14.9596 16.8745C14.7837 17.1862 14.5497 16.9593 14.6327 17.2489C15.3279 17.7722 16.8608 18.5535 17.6216 18.6683C17.7947 18.5708 17.8975 18.4876 18.0697 18.3677C18.3692 18.1861 18.2872 18.2008 18.5593 18.2119C18.6848 17.8234 19.1268 17.6584 19.6669 17.2976C20.7013 16.6117 22.7561 14.9025 23.6198 14.0885C24.5853 13.1688 27.0831 10.4716 27.3397 9.26589C26.5936 9.2182 24.2811 7.59018 23.5434 6.89957L22.5507 5.75745C21.7517 4.73122 21.449 3.9886 20.8977 2.952C21.6934 2.49034 23.182 2.21388 23.9362 2.17106C25.4796 2.07267 26.6455 2.55372 26.9861 2.50565C26.364 2.03567 26.1206 1.86549 24.9895 1.65353C24.3584 1.53338 23.4703 1.48035 22.8472 1.55151C19.3667 1.93385 16.6973 3.91683 14.1388 6.28973C12.5468 7.76544 11.0345 9.73384 10.3628 10.3369C10.7505 10.5686 10.9891 10.6263 11.298 10.9516L10.6607 11.8124C11.0107 12.5531 11.2587 13.3994 11.7945 14.0647Z" fill="#828482"/>
<path id="Vector_2" fill-rule="evenodd" clip-rule="evenodd" d="M5.89511 21.8529L5.88424 22.1578C6.58229 22.4668 8.56855 21.944 9.19871 21.7598C11.3821 21.1499 11.3058 20.736 12.5567 19.8608C12.5558 19.8383 12.5661 19.804 12.577 19.781L12.6265 19.5535C12.8941 18.3248 12.7615 19.1082 12.9521 18.5817C12.3181 18.6758 12.5125 18.5211 12.4083 18.2888C11.8158 18.8096 12.1422 18.4239 11.8978 19.0767C11.7808 19.3859 11.3605 20.0686 10.9106 19.7605C10.5333 19.4945 9.26599 18.0031 8.58634 17.5694C8.92597 17.217 8.99578 17.1915 9.32833 16.9521C9.5689 16.773 9.5472 16.819 9.69155 16.5988L9.83072 16.2547C9.2025 15.6385 8.50909 16.2875 8.00955 16.7706C7.22604 17.5248 6.46605 19.1236 6.21457 20.1712C6.07443 20.7745 6.01731 21.3856 5.89511 21.8529Z" fill="#ED9022"/>
<path id="Vector_3" fill-rule="evenodd" clip-rule="evenodd" d="M9.89966 9.71368C10.3114 9.95573 10.5623 10.0241 10.8958 10.3709L10.2137 11.29C10.5999 12.0517 10.8508 12.9656 11.4356 13.6739C11.8096 13.8611 11.4092 13.8892 12.4176 13.4299L13.3237 13.065C13.7997 12.8648 13.2431 13.1135 13.6907 12.8017L14.986 12.1388C15.1331 12.2679 15.2835 13.8849 17.1909 14.0193C18.2338 14.0997 19.9932 12.6733 19.1212 11.0301C18.8265 10.4788 18.7821 10.5483 18.3534 10.1829L19.6647 9.33898C20.6014 10.2693 21.7423 10.4357 22.7023 9.66282C23.5362 8.98538 23.7334 8.33457 23.4609 7.46668C23.3798 7.22207 23.2279 6.98042 23.1147 6.81606L23.9558 6.02558L22.9007 4.80716C22.0518 3.71538 21.7231 2.91748 21.1336 1.81485C17.2243 3.24096 15.7705 4.35016 9.89966 9.71368Z" fill="#B8B8B9"/>
<path id="Vector_4" fill-rule="evenodd" clip-rule="evenodd" d="M23.9562 6.03659L23.1152 6.82707C23.2166 6.99192 23.3802 7.23307 23.4613 7.47769C23.7339 8.34557 23.5367 8.99638 22.7027 9.67383C21.7428 10.4467 20.59 10.2808 19.6652 9.34999L18.3538 10.194C18.7826 10.5593 18.8264 10.4786 19.1217 11.0411C19.9932 12.6731 18.2337 14.0994 17.1913 14.0303C15.2717 13.8851 15.1218 12.2794 14.9864 12.1498L13.6912 12.8127C13.2553 13.124 13.8001 12.8758 13.3242 13.0761L12.4181 13.4409C11.4096 13.9002 11.81 13.8721 11.436 13.6849L12.2354 14.7224C12.7514 14.6331 12.5695 13.6713 13.3128 13.6515C14.5637 13.6217 15.3546 14.4566 15.2616 15.6216C15.2243 16.1417 14.9861 16.3771 14.8097 16.6776C14.6229 17.0124 14.3644 16.7639 14.4601 17.0755C15.1921 17.6311 16.8457 18.475 17.6424 18.5995C17.8273 18.5016 17.9296 18.4071 18.1254 18.2862C18.4362 18.0928 18.3542 18.1076 18.6381 18.1182C18.7745 17.7067 19.2395 17.5294 19.8141 17.1446C20.9174 16.4108 23.1094 14.5944 24.0297 13.7217C25.0637 12.7428 27.7307 9.85803 28.0082 8.58386C27.2143 8.52688 24.7434 6.7815 23.9562 6.03659Z" fill="#828482"/>
<path id="Vector_5" fill-rule="evenodd" clip-rule="evenodd" d="M9.89963 9.71374C8.27713 9.04888 7.06255 9.38152 5.33805 10.2315C3.65977 11.057 2.88189 12.2281 2.15546 12.9349C1.93989 13.1468 1.5111 13.6269 1.25354 13.9646L1.93464 13.8685C2.4134 13.7357 3.31005 13.7095 3.80672 13.7225C5.20145 13.7431 6.51643 14.3983 7.47668 15.3276C7.60453 14.9953 7.90926 14.6557 8.10644 14.2867L9.03197 12.9741C9.04282 12.9511 9.06546 12.9276 9.07631 12.9046L9.53341 12.2542C9.89427 11.8446 9.87306 11.62 10.2132 11.2788L10.8953 10.3597C10.5623 10.0242 10.3114 9.9558 9.89963 9.71374Z" fill="#0060A5"/>
<path id="Vector_6" fill-rule="evenodd" clip-rule="evenodd" d="M13.2353 21.1176C14.7931 22.7772 15.067 25.088 14.3579 27.0566C15.8909 26.147 17.8395 24.4421 18.6759 22.9755C19.567 21.4051 19.8393 20.0071 18.8857 18.3899C18.5056 18.0563 18.4589 18.0696 18.0796 18.3222C16.9542 19.0907 17.4792 18.6517 16.8697 19.0492L13.2353 21.1176Z" fill="#1B4485"/>
<path id="Vector_7" fill-rule="evenodd" clip-rule="evenodd" d="M27.6474 1.3507C27.2832 1.39976 26.0333 0.888402 24.3962 1.00199C23.5835 1.05853 22.001 1.35019 21.1472 1.83683C21.7367 2.93946 22.0536 3.73785 22.9143 4.82913C23.2619 5.23169 23.651 5.77906 24.1458 6.02891C24.7717 5.74345 26.9053 3.37706 27.5364 2.65173C27.6152 2.55825 27.694 2.46478 27.7732 2.38255C27.7959 2.35906 27.8515 2.27782 27.8746 2.26558C28.0789 2.06539 28.1062 2.15443 28.1831 2.01594C28.4473 1.55397 28.2473 1.85544 28.227 1.65337L27.6474 1.3507Z" fill="#0060A5"/>
<path id="Vector_8" fill-rule="evenodd" clip-rule="evenodd" d="M22.9017 4.82947L23.9567 6.04791C24.7434 6.78156 27.2143 8.52694 28.0082 8.58392C28.5596 7.92956 28.9928 5.85977 29.0324 5.1141C29.0575 4.58322 28.9214 2.17651 28.2144 1.65371C28.2346 1.85578 28.4351 1.56556 28.1705 2.01628C28.0931 2.14351 28.0658 2.05448 27.862 2.26592C27.8393 2.28941 27.7832 2.3594 27.7606 2.38289C27.6813 2.46512 27.603 2.56985 27.5238 2.65207C26.8931 3.38865 24.759 5.74379 24.1331 6.02926C23.6497 5.76766 23.2493 5.23203 22.9017 4.82947Z" fill="#1B4485"/>
<path id="Vector_9" fill-rule="evenodd" clip-rule="evenodd" d="M14.5337 16.8582C14.1276 16.7512 14.0493 17.1378 13.1281 17.7061L11.4568 18.9823C11.2016 19.0944 10.6201 19.3104 10.4017 19.4548C10.9351 20.0637 12.3986 21.4455 13.2353 21.1174L16.8462 19.0499C17.4556 18.6524 16.965 19.0675 18.0905 18.2989C18.4693 18.0351 18.4716 18.0913 18.8621 18.3906L18.6258 18.1074C18.3306 18.1085 18.424 18.082 18.1131 18.2754C17.9174 18.3963 17.815 18.4908 17.6301 18.5887C16.8339 18.4755 15.2657 17.4138 14.5337 16.8582Z" fill="#05133A"/>
<path id="Vector_10" fill-rule="evenodd" clip-rule="evenodd" d="M7.47715 15.3387C7.10353 16.0082 8.26184 17.4365 8.90562 18.1423C9.28771 17.6754 9.767 16.7084 10.1208 16.13C10.6293 15.297 11.2831 15.1119 11.9954 14.3493L11.436 13.6851C10.8512 12.9768 10.6003 12.0629 10.2141 11.3012C9.874 11.6424 9.89474 11.8557 9.53435 12.2766L9.07725 12.927C9.0664 12.95 9.04376 12.9735 9.03291 12.9965L8.10738 14.3091C7.90973 14.6668 7.60453 14.9952 7.47715 15.3387Z" fill="#1E2363"/>
<path id="Vector_11" fill-rule="evenodd" clip-rule="evenodd" d="M18.0581 10.4659C15.1711 9.22266 14.1675 13.7513 17.4579 13.6249C17.9531 13.6042 18.4461 13.2454 18.7121 12.8284C19.1565 12.156 19.1646 10.9382 18.0581 10.4659Z" fill="#000001"/>
<path id="Vector_12" fill-rule="evenodd" clip-rule="evenodd" d="M22.4869 6.77457C20.2409 5.32414 18.6073 8.34599 20.3684 9.50106C21.158 10.0204 22.1843 9.98874 22.8905 9.07991C23.0363 8.89344 23.1235 8.7207 23.1613 8.49366L23.1811 7.839C23.1307 7.48038 22.8751 7.01761 22.4869 6.77457Z" fill="#000001"/>
<path id="Vector_13" fill-rule="evenodd" clip-rule="evenodd" d="M10.1204 16.1187C9.61229 16.9629 7.9683 19.7372 7.85975 20.5308C10.5347 19.5284 9.93754 19.6548 11.4451 18.983C12.7861 18.2843 15.12 17.3187 15.2498 15.6223C15.3428 14.4573 14.5514 13.6111 13.301 13.6522C12.0148 13.6834 10.7289 15.1351 10.1204 16.1187Z" fill="#1B4485"/>
</g>
</svg>
