<svg width="135" height="131" viewBox="0 0 135 131" fill="none" xmlns="http://www.w3.org/2000/svg">
<g id="rocket-takeoff">
<g id="planet">
<path id="Vector" fill-rule="evenodd" clip-rule="evenodd" d="M36.0584 107.797C55.2277 119.866 80.6405 114.113 92.6741 94.9809C104.677 75.898 98.8652 50.4868 79.6959 38.418C60.5761 26.3803 35.1633 32.133 23.1607 51.2159C11.127 70.3481 16.9385 95.7593 36.0584 107.797Z" fill="#FF6666"/>
<path id="Vector_2" fill-rule="evenodd" clip-rule="evenodd" d="M79.7706 38.2326C98.9474 50.3594 104.723 75.7425 92.7104 94.9123C80.6664 114.132 55.3849 119.875 36.2081 107.748C33.2963 104.596 26.3225 99.358 29.549 96.8453C31.1623 95.589 34.3721 100.792 38.7091 104.087C44.5434 108.397 51.726 111.214 53.7039 109.706C56.5969 107.396 48.0131 104.727 39.8125 98.9205C30.0964 92.0175 20.4185 81.7583 23.6556 77.2517C26.1313 73.8503 33.3579 84.8358 42.7587 92.0224C52.3257 99.383 64.0979 102.895 68.3555 97.3094C72.6751 91.6246 61.9051 86.9526 50.7214 79.5355C40.2773 72.5859 29.0792 60.4686 32.6605 53.7652C36.5021 46.5365 45.5518 56.2604 55.9295 62.5471C66.4059 68.8961 78.2905 71.7895 80.8011 63.7191C82.1682 59.3407 74.5198 57.8154 66.662 53.3292C58.7548 48.8119 50.5579 41.3519 51.9478 37.8157C54.5786 31.2011 72.0102 34.3599 79.7706 38.2326Z" fill="#C43F57"/>
<path id="Vector_3" fill-rule="evenodd" clip-rule="evenodd" d="M78.8917 38.5712C80.018 39.2916 81.1136 40.0619 82.1297 40.8506C81.8848 40.694 81.5909 40.506 81.3461 40.3494C62.2968 28.1654 37.213 33.9928 25.2856 53.3732C14.0635 71.6077 18.5276 95.2927 34.9367 108.218C16.5244 95.8862 11.0571 70.7263 22.8311 51.595C34.8075 32.2459 59.8914 26.4185 78.8917 38.5712Z" fill="#DF99FF"/>
</g>
<g id="rocket">
<path id="flame" fill-rule="evenodd" clip-rule="evenodd" d="M92.2549 32.604L92.6706 31.971C92.7945 31.6124 92.7435 31.9375 92.7274 31.5507C92.1326 32.0657 91.6943 32.7715 91.0773 33.1631C91.011 32.681 93.1523 28.9728 93.8593 28.3738L94.6849 27.2593L94.9767 26.985C94.5397 26.9901 94.1748 27.4101 93.7208 27.5048C94.5524 26.211 94.5815 25.5664 96.3202 24.5595C98.2214 23.4518 99.1001 23.9909 99.5601 23.6327L105.167 30.2198L105.922 31.0895C105.804 31.2688 105.573 32.3167 105.443 32.6585C104.745 34.5242 102.686 36.1978 101.207 36.269L102.038 35.1993C102.01 35.1993 101.987 35.2441 101.954 35.2273C101.92 35.2104 101.886 35.2496 101.87 35.2552C101.746 35.3055 101.769 35.2887 101.617 35.367C100.047 36.234 100.809 35.9434 98.6114 36.9723C98.0395 37.2463 95.9873 38.1239 95.248 38.0334C95.5233 37.5684 96.6052 37.2558 96.6342 36.7233C95.5351 37.2377 94.3523 37.64 93.2985 37.9246L90.0647 38.5318C89.88 38.4532 89.9304 38.4644 89.7905 38.3521C90.0947 37.4388 90.2926 36.4581 90.7594 35.4721C91.1081 34.7495 91.6765 33.3096 92.2549 32.604Z" fill="#EF8721"/>
<path id="Vector_4" fill-rule="evenodd" clip-rule="evenodd" d="M104.202 21.9909L105.445 23.6038C106.243 23.4768 105.965 21.9733 107.12 21.9436C109.078 21.8991 110.309 23.1945 110.15 25.0157C110.086 25.8228 109.709 26.1939 109.454 26.6536C109.162 27.1708 108.774 26.7943 108.911 27.2749C110.065 28.1432 112.609 29.4398 113.871 29.6301C114.158 29.4685 114.329 29.3304 114.615 29.1314C115.112 28.83 114.976 28.8544 115.427 28.8729C115.635 28.2282 116.369 27.9543 117.265 27.3556C118.982 26.2176 122.391 23.3812 123.824 22.0305C125.427 20.5044 129.572 16.0285 129.997 14.0278C128.759 13.9487 124.922 11.2471 123.698 10.1011L122.05 8.20587C120.725 6.50293 120.222 5.27063 119.307 3.5505C120.628 2.78441 123.098 2.32565 124.35 2.25459C126.911 2.09133 128.845 2.88958 129.411 2.80982C128.378 2.02993 127.974 1.74752 126.097 1.3958C125.05 1.19642 123.576 1.10843 122.543 1.22651C116.767 1.86097 112.337 5.15153 108.092 9.08913C105.45 11.538 102.94 14.8043 101.826 15.805C102.469 16.1896 102.865 16.2853 103.378 16.825L102.32 18.2535C102.901 19.4826 103.312 20.887 104.202 21.9909Z" fill="#828482"/>
<path id="Vector_5" fill-rule="evenodd" clip-rule="evenodd" d="M94.4121 34.9148L94.3941 35.4206C95.5524 35.9333 98.8484 35.0659 99.8941 34.7603C103.517 33.7482 103.391 33.0614 105.466 31.609C105.465 31.5716 105.482 31.5148 105.5 31.4766L105.582 31.099C106.026 29.0602 105.806 30.3601 106.122 29.4864C105.07 29.6427 105.393 29.386 105.22 29.0004C104.237 29.8646 104.779 29.2246 104.373 30.3079C104.179 30.821 103.481 31.9539 102.735 31.4426C102.109 31.0012 100.006 28.5264 98.8779 27.8066C99.4415 27.2218 99.5574 27.1796 100.109 26.7824C100.508 26.4851 100.472 26.5614 100.712 26.196L100.943 25.6251C99.9004 24.6025 98.7498 25.6794 97.9208 26.4811C96.6207 27.7327 95.3595 30.3856 94.9422 32.1241C94.7097 33.1252 94.6149 34.1393 94.4121 34.9148Z" fill="#ED9022"/>
<path id="Vector_6" fill-rule="evenodd" clip-rule="evenodd" d="M101.057 14.771C101.741 15.1726 102.157 15.2862 102.71 15.8616L101.578 17.3868C102.219 18.6507 102.636 20.1672 103.606 21.3425C104.227 21.6533 103.562 21.6998 105.236 20.9376L106.739 20.3322C107.529 19.9999 106.605 20.4127 107.348 19.8952L109.498 18.7952C109.742 19.0094 109.991 21.6927 113.156 21.9157C114.887 22.0491 117.807 19.6822 116.36 16.9555C115.87 16.0406 115.797 16.1559 115.085 15.5497L117.261 14.1492C118.816 15.6929 120.709 15.9691 122.302 14.6866C123.686 13.5624 124.013 12.4825 123.561 11.0423C123.426 10.6364 123.174 10.2354 122.986 9.96263L124.382 8.65091L122.631 6.62905C121.223 4.81735 120.677 3.49331 119.699 1.66359C113.212 4.0301 110.799 5.87071 101.057 14.771Z" fill="#B8B8B9"/>
<path id="Vector_7" fill-rule="evenodd" clip-rule="evenodd" d="M124.383 8.66917L122.987 9.98089C123.155 10.2544 123.427 10.6546 123.562 11.0605C124.014 12.5007 123.687 13.5807 122.303 14.7048C120.71 15.9874 118.797 15.712 117.262 14.1674L115.086 15.5679C115.798 16.1742 115.87 16.0402 116.36 16.9737C117.807 19.6818 114.887 22.0487 113.157 21.934C109.972 21.6931 109.723 19.0285 109.498 18.8134L107.349 19.9135C106.626 20.4301 107.53 20.0182 106.74 20.3505L105.236 20.9559C103.563 21.718 104.227 21.6715 103.607 21.3608L104.933 23.0824C105.79 22.9343 105.488 21.3382 106.721 21.3053C108.797 21.2559 110.109 22.6414 109.955 24.5746C109.893 25.4377 109.498 25.8283 109.205 26.327C108.895 26.8824 108.466 26.4701 108.625 26.9872C109.84 27.9091 112.584 29.3096 113.906 29.5162C114.212 29.3537 114.382 29.1969 114.707 28.9963C115.223 28.6754 115.087 28.6998 115.558 28.7175C115.784 28.0346 116.556 27.7404 117.509 27.1019C119.34 25.8842 122.978 22.87 124.505 21.4218C126.221 19.7974 130.646 15.0105 131.107 12.8961C129.789 12.8016 125.689 9.90526 124.383 8.66917Z" fill="#828482"/>
<path id="Vector_8" fill-rule="evenodd" clip-rule="evenodd" d="M101.057 14.771C98.3648 13.6677 96.3493 14.2197 93.4877 15.6302C90.7028 17 89.4119 18.9433 88.2065 20.1162C87.8488 20.4678 87.1372 21.2646 86.7098 21.8249L87.8401 21.6654C88.6345 21.4451 90.1224 21.4016 90.9466 21.4232C93.261 21.4573 95.4431 22.5445 97.0366 24.0866C97.2487 23.5353 97.7544 22.9716 98.0816 22.3593L99.6174 20.1813C99.6354 20.1431 99.673 20.1041 99.691 20.0659L100.45 18.9867C101.048 18.3069 101.013 17.9342 101.577 17.3681L102.709 15.843C102.157 15.2862 101.74 15.1727 101.057 14.771Z" fill="#0060A5"/>
<path id="Vector_9" fill-rule="evenodd" clip-rule="evenodd" d="M106.593 33.6947C109.178 36.4486 109.632 40.2831 108.455 43.5498C110.999 42.0404 114.233 39.2114 115.621 36.7776C117.099 34.1717 117.551 31.8519 115.969 29.1683C115.338 28.6148 115.26 28.6367 114.631 29.0559C112.764 30.3312 113.635 29.6026 112.623 30.2623L106.593 33.6947Z" fill="#1B4485"/>
<path id="Vector_10" fill-rule="evenodd" clip-rule="evenodd" d="M130.508 0.893359C129.904 0.974757 127.83 0.126211 125.113 0.314693C123.764 0.408524 121.138 0.892512 119.722 1.70004C120.7 3.52975 121.226 4.8546 122.654 6.66548C123.231 7.33348 123.876 8.2418 124.697 8.6564C125.736 8.1827 129.276 4.2559 130.324 3.05229C130.455 2.89717 130.585 2.74206 130.717 2.60561C130.754 2.56663 130.847 2.43182 130.885 2.41151C131.224 2.07932 131.269 2.22706 131.397 1.99725C131.835 1.23066 131.503 1.73091 131.47 1.39561L130.508 0.893359Z" fill="#0060A5"/>
<path id="Vector_11" fill-rule="evenodd" clip-rule="evenodd" d="M122.633 6.66591L124.384 8.68779C125.689 9.90521 129.789 12.8015 131.107 12.8961C132.022 11.8102 132.74 8.37559 132.806 7.13822C132.848 6.25728 132.622 2.26356 131.449 1.39603C131.482 1.73134 131.815 1.24975 131.376 1.99767C131.248 2.20882 131.202 2.06107 130.864 2.41193C130.826 2.45092 130.733 2.56705 130.696 2.60604C130.564 2.74248 130.434 2.91627 130.303 3.05272C129.256 4.275 125.715 8.18314 124.676 8.65684C123.874 8.22274 123.21 7.33392 122.633 6.66591Z" fill="#1B4485"/>
<path id="Vector_12" fill-rule="evenodd" clip-rule="evenodd" d="M108.747 26.6266C108.073 26.449 107.943 27.0905 106.415 28.0336L103.641 30.1512C103.218 30.3373 102.253 30.6957 101.89 30.9353C102.775 31.9458 105.204 34.2387 106.593 33.6942L112.584 30.2634C113.596 29.6038 112.782 30.2926 114.649 29.0173C115.278 28.5794 115.282 28.6728 115.93 29.1695L115.538 28.6995C115.048 28.7013 115.203 28.6574 114.687 28.9783C114.362 29.1789 114.192 29.3357 113.885 29.4982C112.564 29.3103 109.962 27.5485 108.747 26.6266Z" fill="#05133A"/>
<path id="Vector_13" fill-rule="evenodd" clip-rule="evenodd" d="M97.0373 24.1052C96.4173 25.2161 98.3395 27.5862 99.4077 28.7575C100.042 27.9827 100.837 26.3781 101.424 25.4182C102.268 24.036 103.353 23.7288 104.535 22.4634L103.607 21.3611C102.636 20.1858 102.22 18.6693 101.579 17.4054C101.015 17.9715 101.049 18.3255 100.451 19.0239L99.6925 20.1032C99.6745 20.1414 99.637 20.1804 99.619 20.2185L98.0831 22.3966C97.7552 22.9902 97.2487 23.5352 97.0373 24.1052Z" fill="#1E2363"/>
<path id="Vector_14" fill-rule="evenodd" clip-rule="evenodd" d="M114.595 16.0191C109.805 13.956 108.139 21.4708 113.599 21.2611C114.421 21.2267 115.239 20.6313 115.681 19.9394C116.418 18.8236 116.432 16.8028 114.595 16.0191Z" fill="#000001"/>
<path id="Vector_15" fill-rule="evenodd" clip-rule="evenodd" d="M121.945 9.89363C118.218 7.48677 115.507 12.5012 118.429 14.418C119.739 15.2798 121.443 15.2272 122.614 13.7191C122.856 13.4097 123.001 13.123 123.064 12.7463L123.097 11.66C123.013 11.0649 122.589 10.2969 121.945 9.89363Z" fill="#000001"/>
<path id="Vector_16" fill-rule="evenodd" clip-rule="evenodd" d="M101.423 25.3995C100.58 26.8004 97.8523 31.404 97.6722 32.721C102.111 31.0575 101.12 31.2673 103.622 30.1525C105.847 28.9932 109.72 27.3908 109.935 24.5758C110.09 22.6426 108.776 21.2384 106.702 21.3065C104.567 21.3584 102.433 23.7672 101.423 25.3995Z" fill="#1B4485"/>
</g>
</g>
</svg>
