<svg width="1168" height="637" viewBox="0 0 1168 637" fill="none" xmlns="http://www.w3.org/2000/svg">
<g id="Stars1">
<path id="Vector" fill-rule="evenodd" clip-rule="evenodd" d="M1112.16 4.28674C1113.25 4.28674 1114.19 3.34573 1114.19 2.14335C1114.19 0.993255 1113.25 0 1112.16 0C1111.02 0 1110.12 0.993255 1110.12 2.14335C1110.12 3.29345 1111.02 4.28674 1112.16 4.28674Z" fill="white"/>
<path id="Vector_2" fill-rule="evenodd" clip-rule="evenodd" d="M80.0356 182.287C81.1279 182.287 82.0713 181.346 82.0713 180.143C82.0713 178.993 81.1279 178 80.0356 178C78.8937 178 78 178.993 78 180.143C78 181.293 78.8937 182.287 80.0356 182.287Z" fill="white"/>
<path id="Vector_3" fill-rule="evenodd" clip-rule="evenodd" d="M1166.84 599.777C1167.29 599.777 1167.69 599.359 1167.69 598.889C1167.69 598.418 1167.34 598 1166.84 598C1166.4 598 1166 598.418 1166 598.889C1166 599.411 1166.35 599.777 1166.84 599.777Z" fill="white"/>
<path id="Vector_4" fill-rule="evenodd" clip-rule="evenodd" d="M568.75 555.5C569.147 555.5 569.5 555.147 569.5 554.75C569.5 554.353 569.191 554 568.75 554C568.353 554 568 554.353 568 554.75C568 555.191 568.309 555.5 568.75 555.5Z" fill="white"/>
<path id="Vector_5" fill-rule="evenodd" clip-rule="evenodd" d="M690.65 45.3C690.994 45.3 691.3 44.9941 691.3 44.65C691.3 44.3059 691.032 44 690.65 44C690.306 44 690 44.3059 690 44.65C690 45.0323 690.268 45.3 690.65 45.3Z" fill="white"/>
<path id="Vector_6" fill-rule="evenodd" clip-rule="evenodd" d="M658.65 315.3C658.994 315.3 659.3 314.994 659.3 314.65C659.3 314.306 659.032 314 658.65 314C658.306 314 658 314.306 658 314.65C658 315.032 658.268 315.3 658.65 315.3Z" fill="white"/>
<path id="Vector_7" fill-rule="evenodd" clip-rule="evenodd" d="M184.65 636.3C184.994 636.3 185.3 635.994 185.3 635.65C185.3 635.306 185.032 635 184.65 635C184.306 635 184 635.306 184 635.65C184 636.032 184.268 636.3 184.65 636.3Z" fill="white"/>
<path id="Vector_8" fill-rule="evenodd" clip-rule="evenodd" d="M1065.65 260.3C1065.99 260.3 1066.3 259.994 1066.3 259.65C1066.3 259.306 1066.03 259 1065.65 259C1065.31 259 1065 259.306 1065 259.65C1065 260.032 1065.27 260.3 1065.65 260.3Z" fill="white"/>
<path id="Vector_9" fill-rule="evenodd" clip-rule="evenodd" d="M255.75 152.5C256.147 152.5 256.5 152.147 256.5 151.75C256.5 151.353 256.191 151 255.75 151C255.353 151 255 151.353 255 151.75C255 152.191 255.309 152.5 255.75 152.5Z" fill="white"/>
<path id="Vector_10" fill-rule="evenodd" clip-rule="evenodd" d="M1042.75 619.5C1043.15 619.5 1043.5 619.147 1043.5 618.75C1043.5 618.353 1043.19 618 1042.75 618C1042.35 618 1042 618.353 1042 618.75C1042 619.191 1042.31 619.5 1042.75 619.5Z" fill="white"/>
<path id="Vector_11" fill-rule="evenodd" clip-rule="evenodd" d="M389.75 484.5C390.147 484.5 390.5 484.147 390.5 483.75C390.5 483.353 390.191 483 389.75 483C389.353 483 389 483.353 389 483.75C389 484.191 389.309 484.5 389.75 484.5Z" fill="white"/>
<path id="Vector_12" fill-rule="evenodd" clip-rule="evenodd" d="M826.75 376.5C827.147 376.5 827.5 376.147 827.5 375.75C827.5 375.353 827.191 375 826.75 375C826.353 375 826 375.353 826 375.75C826 376.191 826.309 376.5 826.75 376.5Z" fill="white"/>
<path id="Vector_13" fill-rule="evenodd" clip-rule="evenodd" d="M1.21693 135.04C1.66376 135.04 2.06091 134.622 2.06091 134.151C2.06091 133.681 1.71341 133.262 1.21693 133.262C0.770103 133.262 0.372887 133.681 0.372887 134.151C0.372887 134.674 0.720456 135.04 1.21693 135.04Z" fill="white"/>
<path id="Vector_14" fill-rule="evenodd" clip-rule="evenodd" d="M17.1508 23.4942C17.5977 23.4942 17.9948 23.076 17.9948 22.6055C17.9948 22.135 17.6473 21.7168 17.1508 21.7168C16.704 21.7168 16.3068 22.135 16.3068 22.6055C16.3068 23.1283 16.6544 23.4942 17.1508 23.4942Z" fill="#FFCC00"/>
<path id="Vector_15" fill-rule="evenodd" clip-rule="evenodd" d="M312.844 388.777C313.291 388.777 313.688 388.359 313.688 387.889C313.688 387.418 313.34 387 312.844 387C312.397 387 312 387.418 312 387.889C312 388.411 312.348 388.777 312.844 388.777Z" fill="white"/>
</g>
</svg>
