<svg width="1226" height="656" viewBox="0 0 1226 656" fill="none" xmlns="http://www.w3.org/2000/svg">
<g id="stars2">
<path id="Vector" fill-rule="evenodd" clip-rule="evenodd" d="M207.048 55.0823C207.494 55.0823 207.892 54.6641 207.892 54.1936C207.892 53.7231 207.544 53.3049 207.048 53.3049C206.601 53.3049 206.204 53.7231 206.204 54.1936C206.204 54.7164 206.551 55.0823 207.048 55.0823Z" fill="white"/>
<path id="Vector_2" fill-rule="evenodd" clip-rule="evenodd" d="M158.844 249.035C159.291 249.035 159.688 248.616 159.688 248.146C159.688 247.676 159.34 247.257 158.844 247.257C158.397 247.257 158 247.676 158 248.146C158 248.669 158.348 249.035 158.844 249.035Z" fill="white"/>
<path id="Vector_3" fill-rule="evenodd" clip-rule="evenodd" d="M999.65 87.5573C999.994 87.5573 1000.3 87.2514 1000.3 86.9073C1000.3 86.5632 1000.03 86.2573 999.65 86.2573C999.306 86.2573 999 86.5632 999 86.9073C999 87.2897 999.268 87.5573 999.65 87.5573Z" fill="white"/>
<path id="Vector_4" fill-rule="evenodd" clip-rule="evenodd" d="M1154.65 163.557C1154.99 163.557 1155.3 163.251 1155.3 162.907C1155.3 162.563 1155.03 162.257 1154.65 162.257C1154.31 162.257 1154 162.563 1154 162.907C1154 163.29 1154.27 163.557 1154.65 163.557Z" fill="white"/>
<path id="Vector_5" fill-rule="evenodd" clip-rule="evenodd" d="M561.65 31.5573C561.994 31.5573 562.3 31.2514 562.3 30.9073C562.3 30.5632 562.032 30.2573 561.65 30.2573C561.306 30.2573 561 30.5632 561 30.9073C561 31.2897 561.268 31.5573 561.65 31.5573Z" fill="white"/>
<path id="Vector_6" fill-rule="evenodd" clip-rule="evenodd" d="M686.65 211.557C686.994 211.557 687.3 211.251 687.3 210.907C687.3 210.563 687.032 210.257 686.65 210.257C686.306 210.257 686 210.563 686 210.907C686 211.29 686.268 211.557 686.65 211.557Z" fill="white"/>
<path id="Vector_7" fill-rule="evenodd" clip-rule="evenodd" d="M998.65 449.557C998.994 449.557 999.3 449.251 999.3 448.907C999.3 448.563 999.032 448.257 998.65 448.257C998.306 448.257 998 448.563 998 448.907C998 449.29 998.268 449.557 998.65 449.557Z" fill="white"/>
<path id="Vector_8" fill-rule="evenodd" clip-rule="evenodd" d="M990.65 161.557C990.994 161.557 991.3 161.251 991.3 160.907C991.3 160.563 991.032 160.257 990.65 160.257C990.306 160.257 990 160.563 990 160.907C990 161.29 990.268 161.557 990.65 161.557Z" fill="white"/>
<path id="Vector_9" fill-rule="evenodd" clip-rule="evenodd" d="M175.65 429.557C175.994 429.557 176.3 429.251 176.3 428.907C176.3 428.563 176.032 428.257 175.65 428.257C175.306 428.257 175 428.563 175 428.907C175 429.29 175.268 429.557 175.65 429.557Z" fill="white"/>
<path id="Vector_10" fill-rule="evenodd" clip-rule="evenodd" d="M685.65 384.557C685.994 384.557 686.3 384.251 686.3 383.907C686.3 383.563 686.032 383.257 685.65 383.257C685.306 383.257 685 383.563 685 383.907C685 384.29 685.268 384.557 685.65 384.557Z" fill="white"/>
<path id="Vector_11" fill-rule="evenodd" clip-rule="evenodd" d="M350.75 241.757C351.147 241.757 351.5 241.404 351.5 241.007C351.5 240.61 351.191 240.257 350.75 240.257C350.353 240.257 350 240.61 350 241.007C350 241.448 350.309 241.757 350.75 241.757Z" fill="white"/>
<path id="Vector_12" fill-rule="evenodd" clip-rule="evenodd" d="M519.75 131.757C520.147 131.757 520.5 131.404 520.5 131.007C520.5 130.61 520.191 130.257 519.75 130.257C519.353 130.257 519 130.61 519 131.007C519 131.448 519.309 131.757 519.75 131.757Z" fill="white"/>
<path id="Vector_13" fill-rule="evenodd" clip-rule="evenodd" d="M446.056 655.257C446.503 655.257 446.9 654.839 446.9 654.368C446.9 653.898 446.553 653.48 446.056 653.48C445.609 653.48 445.212 653.898 445.212 654.368C445.212 654.891 445.56 655.257 446.056 655.257Z" fill="#FFCC00"/>
<path id="Vector_14" fill-rule="evenodd" clip-rule="evenodd" d="M365.45 1.77742C365.896 1.77742 366.294 1.3592 366.294 0.888702C366.294 0.418208 365.946 0 365.45 0C365.003 0 364.605 0.418208 364.605 0.888702C364.605 1.41147 364.953 1.77742 365.45 1.77742Z" fill="white"/>
<path id="Vector_15" fill-rule="evenodd" clip-rule="evenodd" d="M0.84404 552.596C1.29087 552.596 1.68802 552.177 1.68802 551.707C1.68802 551.236 1.34051 550.818 0.84404 550.818C0.397215 550.818 0 551.236 0 551.707C0 552.23 0.347567 552.596 0.84404 552.596Z" fill="white"/>
<path id="bliking-star2" fill-rule="evenodd" clip-rule="evenodd" d="M1223.04 500.544C1224.13 500.544 1225.07 499.603 1225.07 498.401C1225.07 497.251 1224.13 496.257 1223.04 496.257C1221.89 496.257 1221 497.251 1221 498.401C1221 499.551 1221.89 500.544 1223.04 500.544Z" fill="white"/>
<path id="Vector_16" fill-rule="evenodd" clip-rule="evenodd" d="M363.036 104.544C364.128 104.544 365.071 103.603 365.071 102.401C365.071 101.251 364.128 100.257 363.036 100.257C361.894 100.257 361 101.251 361 102.401C361 103.551 361.894 104.544 363.036 104.544Z" fill="white"/>
</g>
</svg>
