<svg width="1175" height="404" viewBox="0 0 1175 404" fill="none" xmlns="http://www.w3.org/2000/svg">
<g id="stars4">
<path id="Vector" fill-rule="evenodd" clip-rule="evenodd" d="M1071.5 189C1071.76 189 1072 188.765 1072 188.5C1072 188.235 1071.79 188 1071.5 188C1071.24 188 1071 188.235 1071 188.5C1071 188.794 1071.21 189 1071.5 189Z" fill="white"/>
<path id="Vector_2" fill-rule="evenodd" clip-rule="evenodd" d="M1002.5 137C1002.76 137 1003 136.765 1003 136.5C1003 136.235 1002.79 136 1002.5 136C1002.24 136 1002 136.235 1002 136.5C1002 136.794 1002.21 137 1002.5 137Z" fill="white"/>
<path id="Vector_3" fill-rule="evenodd" clip-rule="evenodd" d="M955.5 181C955.765 181 956 180.765 956 180.5C956 180.235 955.794 180 955.5 180C955.235 180 955 180.235 955 180.5C955 180.794 955.206 181 955.5 181Z" fill="white"/>
<path id="Vector_4" fill-rule="evenodd" clip-rule="evenodd" d="M721.5 157C721.765 157 722 156.765 722 156.5C722 156.235 721.794 156 721.5 156C721.235 156 721 156.235 721 156.5C721 156.794 721.206 157 721.5 157Z" fill="white"/>
<path id="Vector_5" fill-rule="evenodd" clip-rule="evenodd" d="M945.5 121C945.765 121 946 120.765 946 120.5C946 120.235 945.794 120 945.5 120C945.235 120 945 120.235 945 120.5C945 120.794 945.206 121 945.5 121Z" fill="white"/>
<path id="Vector_6" fill-rule="evenodd" clip-rule="evenodd" d="M850.5 10C850.765 10 851 9.7647 851 9.5C851 9.23529 850.794 9 850.5 9C850.235 9 850 9.23529 850 9.5C850 9.79411 850.206 10 850.5 10Z" fill="white"/>
<path id="Vector_7" fill-rule="evenodd" clip-rule="evenodd" d="M703.5 189C703.765 189 704 188.765 704 188.5C704 188.235 703.794 188 703.5 188C703.235 188 703 188.235 703 188.5C703 188.794 703.206 189 703.5 189Z" fill="white"/>
<path id="Vector_8" fill-rule="evenodd" clip-rule="evenodd" d="M469.5 1C469.765 1 470 0.764702 470 0.499995C470 0.235289 469.794 0 469.5 0C469.235 0 469 0.235289 469 0.499995C469 0.794114 469.206 1 469.5 1Z" fill="white"/>
<path id="Vector_9" fill-rule="evenodd" clip-rule="evenodd" d="M678.5 90C678.765 90 679 89.7647 679 89.5C679 89.2353 678.794 89 678.5 89C678.235 89 678 89.2353 678 89.5C678 89.7941 678.206 90 678.5 90Z" fill="white"/>
<path id="Vector_10" fill-rule="evenodd" clip-rule="evenodd" d="M1025.5 217C1025.76 217 1026 216.765 1026 216.5C1026 216.235 1025.79 216 1025.5 216C1025.24 216 1025 216.235 1025 216.5C1025 216.794 1025.21 217 1025.5 217Z" fill="white"/>
<path id="Vector_11" fill-rule="evenodd" clip-rule="evenodd" d="M591.5 179C591.765 179 592 178.765 592 178.5C592 178.235 591.794 178 591.5 178C591.235 178 591 178.235 591 178.5C591 178.794 591.206 179 591.5 179Z" fill="white"/>
<path id="Vector_12" fill-rule="evenodd" clip-rule="evenodd" d="M1086.5 346C1086.76 346 1087 345.765 1087 345.5C1087 345.235 1086.79 345 1086.5 345C1086.24 345 1086 345.235 1086 345.5C1086 345.794 1086.21 346 1086.5 346Z" fill="white"/>
<path id="Vector_13" fill-rule="evenodd" clip-rule="evenodd" d="M1085.5 404C1085.76 404 1086 403.765 1086 403.5C1086 403.235 1085.79 403 1085.5 403C1085.24 403 1085 403.235 1085 403.5C1085 403.794 1085.21 404 1085.5 404Z" fill="white"/>
<path id="Vector_14" fill-rule="evenodd" clip-rule="evenodd" d="M1172.5 121C1172.76 121 1173 120.765 1173 120.5C1173 120.235 1172.79 120 1172.5 120C1172.24 120 1172 120.235 1172 120.5C1172 120.794 1172.21 121 1172.5 121Z" fill="white"/>
<path id="Vector_15" fill-rule="evenodd" clip-rule="evenodd" d="M1174.5 143C1174.76 143 1175 142.765 1175 142.5C1175 142.235 1174.79 142 1174.5 142C1174.24 142 1174 142.235 1174 142.5C1174 142.794 1174.21 143 1174.5 143Z" fill="white"/>
<path id="Vector_16" fill-rule="evenodd" clip-rule="evenodd" d="M1151.5 190C1151.76 190 1152 189.765 1152 189.5C1152 189.235 1151.79 189 1151.5 189C1151.24 189 1151 189.235 1151 189.5C1151 189.794 1151.21 190 1151.5 190Z" fill="white"/>
<path id="Vector_17" fill-rule="evenodd" clip-rule="evenodd" d="M1040.5 282C1040.76 282 1041 281.765 1041 281.5C1041 281.235 1040.79 281 1040.5 281C1040.24 281 1040 281.235 1040 281.5C1040 281.794 1040.21 282 1040.5 282Z" fill="white"/>
<path id="Vector_18" fill-rule="evenodd" clip-rule="evenodd" d="M1098.5 270C1098.76 270 1099 269.765 1099 269.5C1099 269.235 1098.79 269 1098.5 269C1098.24 269 1098 269.235 1098 269.5C1098 269.794 1098.21 270 1098.5 270Z" fill="white"/>
<path id="Vector_19" fill-rule="evenodd" clip-rule="evenodd" d="M899.5 317C899.765 317 900 316.765 900 316.5C900 316.235 899.794 316 899.5 316C899.235 316 899 316.235 899 316.5C899 316.794 899.206 317 899.5 317Z" fill="white"/>
<path id="Vector_20" fill-rule="evenodd" clip-rule="evenodd" d="M898.5 298C898.765 298 899 297.765 899 297.5C899 297.235 898.794 297 898.5 297C898.235 297 898 297.235 898 297.5C898 297.794 898.206 298 898.5 298Z" fill="white"/>
<path id="Vector_21" fill-rule="evenodd" clip-rule="evenodd" d="M830.5 270C830.765 270 831 269.765 831 269.5C831 269.235 830.794 269 830.5 269C830.235 269 830 269.235 830 269.5C830 269.794 830.206 270 830.5 270Z" fill="white"/>
<path id="Vector_22" fill-rule="evenodd" clip-rule="evenodd" d="M652.5 307C652.765 307 653 306.765 653 306.5C653 306.235 652.794 306 652.5 306C652.235 306 652 306.235 652 306.5C652 306.794 652.206 307 652.5 307Z" fill="white"/>
<path id="Vector_23" fill-rule="evenodd" clip-rule="evenodd" d="M816.5 298C816.765 298 817 297.765 817 297.5C817 297.235 816.794 297 816.5 297C816.235 297 816 297.235 816 297.5C816 297.794 816.206 298 816.5 298Z" fill="white"/>
<path id="Vector_24" fill-rule="evenodd" clip-rule="evenodd" d="M817.5 346C817.765 346 818 345.765 818 345.5C818 345.235 817.794 345 817.5 345C817.235 345 817 345.235 817 345.5C817 345.794 817.206 346 817.5 346Z" fill="white"/>
<path id="Vector_25" fill-rule="evenodd" clip-rule="evenodd" d="M582.5 324C582.765 324 583 323.765 583 323.5C583 323.235 582.794 323 582.5 323C582.235 323 582 323.235 582 323.5C582 323.794 582.206 324 582.5 324Z" fill="white"/>
<path id="Vector_26" fill-rule="evenodd" clip-rule="evenodd" d="M851.5 247C851.765 247 852 246.765 852 246.5C852 246.235 851.794 246 851.5 246C851.235 246 851 246.235 851 246.5C851 246.794 851.206 247 851.5 247Z" fill="white"/>
<path id="Vector_27" fill-rule="evenodd" clip-rule="evenodd" d="M762.5 30C762.765 30 763 29.7647 763 29.5C763 29.2353 762.794 29 762.5 29C762.235 29 762 29.2353 762 29.5C762 29.7941 762.206 30 762.5 30Z" fill="white"/>
<path id="Vector_28" fill-rule="evenodd" clip-rule="evenodd" d="M162.5 103C162.765 103 163 102.765 163 102.5C163 102.235 162.794 102 162.5 102C162.235 102 162 102.235 162 102.5C162 102.794 162.206 103 162.5 103Z" fill="white"/>
<path id="Vector_29" fill-rule="evenodd" clip-rule="evenodd" d="M219.5 102C219.765 102 220 101.765 220 101.5C220 101.235 219.794 101 219.5 101C219.235 101 219 101.235 219 101.5C219 101.794 219.206 102 219.5 102Z" fill="white"/>
<path id="Vector_30" fill-rule="evenodd" clip-rule="evenodd" d="M573.5 123C573.765 123 574 122.765 574 122.5C574 122.235 573.794 122 573.5 122C573.235 122 573 122.235 573 122.5C573 122.794 573.206 123 573.5 123Z" fill="white"/>
<path id="Vector_31" fill-rule="evenodd" clip-rule="evenodd" d="M362.5 117C362.765 117 363 116.765 363 116.5C363 116.235 362.794 116 362.5 116C362.235 116 362 116.235 362 116.5C362 116.794 362.206 117 362.5 117Z" fill="white"/>
<path id="Vector_32" fill-rule="evenodd" clip-rule="evenodd" d="M327.5 58C327.765 58 328 57.7647 328 57.5C328 57.2353 327.794 57 327.5 57C327.235 57 327 57.2353 327 57.5C327 57.7941 327.206 58 327.5 58Z" fill="white"/>
<path id="Vector_33" fill-rule="evenodd" clip-rule="evenodd" d="M527.5 135C527.765 135 528 134.765 528 134.5C528 134.235 527.794 134 527.5 134C527.235 134 527 134.235 527 134.5C527 134.794 527.206 135 527.5 135Z" fill="white"/>
<path id="Vector_34" fill-rule="evenodd" clip-rule="evenodd" d="M513.5 155C513.765 155 514 154.765 514 154.5C514 154.235 513.794 154 513.5 154C513.235 154 513 154.235 513 154.5C513 154.794 513.206 155 513.5 155Z" fill="white"/>
<path id="Vector_35" fill-rule="evenodd" clip-rule="evenodd" d="M481.5 136C481.765 136 482 135.765 482 135.5C482 135.235 481.794 135 481.5 135C481.235 135 481 135.235 481 135.5C481 135.794 481.206 136 481.5 136Z" fill="white"/>
<path id="Vector_36" fill-rule="evenodd" clip-rule="evenodd" d="M433.5 156C433.765 156 434 155.765 434 155.5C434 155.235 433.794 155 433.5 155C433.235 155 433 155.235 433 155.5C433 155.794 433.206 156 433.5 156Z" fill="white"/>
<path id="Vector_37" fill-rule="evenodd" clip-rule="evenodd" d="M452.5 203C452.765 203 453 202.765 453 202.5C453 202.235 452.794 202 452.5 202C452.235 202 452 202.235 452 202.5C452 202.794 452.206 203 452.5 203Z" fill="white"/>
<path id="Vector_38" fill-rule="evenodd" clip-rule="evenodd" d="M245.5 283C245.765 283 246 282.765 246 282.5C246 282.235 245.794 282 245.5 282C245.235 282 245 282.235 245 282.5C245 282.794 245.206 283 245.5 283Z" fill="white"/>
<path id="Vector_39" fill-rule="evenodd" clip-rule="evenodd" d="M16.5 105C16.7647 105 17 104.765 17 104.5C17 104.235 16.7941 104 16.5 104C16.2353 104 16 104.235 16 104.5C16 104.794 16.2059 105 16.5 105Z" fill="white"/>
<path id="Vector_40" fill-rule="evenodd" clip-rule="evenodd" d="M303.5 58C303.765 58 304 57.7647 304 57.5C304 57.2353 303.794 57 303.5 57C303.235 57 303 57.2353 303 57.5C303 57.7941 303.206 58 303.5 58Z" fill="white"/>
<path id="Vector_41" fill-rule="evenodd" clip-rule="evenodd" d="M295.5 48C295.765 48 296 47.7647 296 47.5C296 47.2353 295.794 47 295.5 47C295.235 47 295 47.2353 295 47.5C295 47.7941 295.206 48 295.5 48Z" fill="white"/>
<path id="Vector_42" fill-rule="evenodd" clip-rule="evenodd" d="M0.500018 9C0.764722 9 1 8.7647 1 8.5C1 8.23529 0.794134 8 0.500018 8C0.235314 8 0 8.23529 0 8.5C0 8.79411 0.205902 9 0.500018 9Z" fill="white"/>
<path id="Vector_43" fill-rule="evenodd" clip-rule="evenodd" d="M47.5 2C47.7647 2 48 1.7647 48 1.5C48 1.23529 47.7941 1 47.5 1C47.2353 1 47 1.23529 47 1.5C47 1.79411 47.2059 2 47.5 2Z" fill="white"/>
<path id="Vector_44" fill-rule="evenodd" clip-rule="evenodd" d="M17.5 50C17.7647 50 18 49.7647 18 49.5C18 49.2353 17.7941 49 17.5 49C17.2353 49 17 49.2353 17 49.5C17 49.7941 17.2059 50 17.5 50Z" fill="white"/>
<path id="Vector_45" fill-rule="evenodd" clip-rule="evenodd" d="M37.5 96C37.7647 96 38 95.7647 38 95.5C38 95.2353 37.7941 95 37.5 95C37.2353 95 37 95.2353 37 95.5C37 95.7941 37.2059 96 37.5 96Z" fill="white"/>
<path id="Vector_46" fill-rule="evenodd" clip-rule="evenodd" d="M105.5 204C105.765 204 106 203.765 106 203.5C106 203.235 105.794 203 105.5 203C105.235 203 105 203.235 105 203.5C105 203.794 105.206 204 105.5 204Z" fill="white"/>
<path id="Vector_47" fill-rule="evenodd" clip-rule="evenodd" d="M175.5 268C175.765 268 176 267.765 176 267.5C176 267.235 175.794 267 175.5 267C175.235 267 175 267.235 175 267.5C175 267.794 175.206 268 175.5 268Z" fill="white"/>
<path id="Vector_48" fill-rule="evenodd" clip-rule="evenodd" d="M96.5 353C96.7647 353 97 352.765 97 352.5C97 352.235 96.7941 352 96.5 352C96.2353 352 96 352.235 96 352.5C96 352.794 96.2059 353 96.5 353Z" fill="white"/>
<path id="Vector_49" fill-rule="evenodd" clip-rule="evenodd" d="M83.5 318C83.7647 318 84 317.765 84 317.5C84 317.235 83.7941 317 83.5 317C83.2353 317 83 317.235 83 317.5C83 317.794 83.2059 318 83.5 318Z" fill="white"/>
<path id="Vector_50" fill-rule="evenodd" clip-rule="evenodd" d="M17.5 365C17.7647 365 18 364.765 18 364.5C18 364.235 17.7941 364 17.5 364C17.2353 364 17 364.235 17 364.5C17 364.794 17.2059 365 17.5 365Z" fill="white"/>
<path id="Vector_51" fill-rule="evenodd" clip-rule="evenodd" d="M96.5 269C96.7647 269 97 268.765 97 268.5C97 268.235 96.7941 268 96.5 268C96.2353 268 96 268.235 96 268.5C96 268.794 96.2059 269 96.5 269Z" fill="white"/>
<path id="Vector_52" fill-rule="evenodd" clip-rule="evenodd" d="M84.5 262C84.7647 262 85 261.765 85 261.5C85 261.235 84.7941 261 84.5 261C84.2353 261 84 261.235 84 261.5C84 261.794 84.2059 262 84.5 262Z" fill="white"/>
<path id="Vector_53" fill-rule="evenodd" clip-rule="evenodd" d="M95.5 280C95.7647 280 96 279.765 96 279.5C96 279.235 95.7941 279 95.5 279C95.2353 279 95 279.235 95 279.5C95 279.794 95.2059 280 95.5 280Z" fill="white"/>
<path id="Vector_54" fill-rule="evenodd" clip-rule="evenodd" d="M106.5 281C106.765 281 107 280.765 107 280.5C107 280.235 106.794 280 106.5 280C106.235 280 106 280.235 106 280.5C106 280.794 106.206 281 106.5 281Z" fill="white"/>
<path id="Vector_55" fill-rule="evenodd" clip-rule="evenodd" d="M94.5 241C94.7647 241 95 240.765 95 240.5C95 240.235 94.7941 240 94.5 240C94.2353 240 94 240.235 94 240.5C94 240.794 94.2059 241 94.5 241Z" fill="white"/>
<path id="Vector_56" fill-rule="evenodd" clip-rule="evenodd" d="M218.5 145C218.765 145 219 144.765 219 144.5C219 144.235 218.794 144 218.5 144C218.235 144 218 144.235 218 144.5C218 144.794 218.206 145 218.5 145Z" fill="white"/>
<path id="Vector_57" fill-rule="evenodd" clip-rule="evenodd" d="M686.5 248C686.765 248 687 247.765 687 247.5C687 247.235 686.794 247 686.5 247C686.235 247 686 247.235 686 247.5C686 247.794 686.206 248 686.5 248Z" fill="white"/>
</g>
</svg>
