<svg width="1108" height="580" viewBox="0 0 1108 580" fill="none" xmlns="http://www.w3.org/2000/svg">
<g id="stars3">
<path id="Vector" fill-rule="evenodd" clip-rule="evenodd" d="M792.035 579.14C793.127 579.14 794.07 578.199 794.07 576.996C794.07 575.846 793.127 574.853 792.035 574.853C790.893 574.853 789.999 575.846 789.999 576.996C789.999 578.146 790.893 579.14 792.035 579.14Z" fill="white"/>
<path id="Vector_2" fill-rule="evenodd" clip-rule="evenodd" d="M1101.84 345.778C1102.29 345.778 1102.69 345.359 1102.69 344.889C1102.69 344.418 1102.34 344 1101.84 344C1101.4 344 1101 344.418 1101 344.889C1101 345.412 1101.35 345.778 1101.84 345.778Z" fill="white"/>
<path id="Vector_3" fill-rule="evenodd" clip-rule="evenodd" d="M817.65 461.3C817.994 461.3 818.3 460.994 818.3 460.65C818.3 460.306 818.032 460 817.65 460C817.306 460 817 460.306 817 460.65C817 461.032 817.268 461.3 817.65 461.3Z" fill="white"/>
<path id="Vector_4" fill-rule="evenodd" clip-rule="evenodd" d="M570.65 118.3C570.994 118.3 571.3 117.994 571.3 117.65C571.3 117.306 571.032 117 570.65 117C570.306 117 570 117.306 570 117.65C570 118.032 570.268 118.3 570.65 118.3Z" fill="white"/>
<path id="Vector_5" fill-rule="evenodd" clip-rule="evenodd" d="M903.65 87.3C903.994 87.3 904.3 86.9941 904.3 86.65C904.3 86.3059 904.032 86 903.65 86C903.306 86 903 86.3059 903 86.65C903 87.0323 903.268 87.3 903.65 87.3Z" fill="white"/>
<path id="Vector_6" fill-rule="evenodd" clip-rule="evenodd" d="M1106.65 41.3C1106.99 41.3 1107.3 40.9941 1107.3 40.65C1107.3 40.3059 1107.03 40 1106.65 40C1106.31 40 1106 40.3059 1106 40.65C1106 41.0323 1106.27 41.3 1106.65 41.3Z" fill="white"/>
<path id="Vector_7" fill-rule="evenodd" clip-rule="evenodd" d="M0.650023 275.3C0.994138 275.3 1.3 274.994 1.3 274.65C1.3 274.306 1.03237 274 0.650023 274C0.305908 274 0 274.306 0 274.65C0 275.032 0.267673 275.3 0.650023 275.3Z" fill="white"/>
<path id="Vector_8" fill-rule="evenodd" clip-rule="evenodd" d="M16.75 353.5C17.1471 353.5 17.5 353.147 17.5 352.75C17.5 352.353 17.1912 352 16.75 352C16.353 352 16 352.353 16 352.75C16 353.191 16.3089 353.5 16.75 353.5Z" fill="white"/>
<path id="Vector_9" fill-rule="evenodd" clip-rule="evenodd" d="M915.75 266.5C916.147 266.5 916.5 266.147 916.5 265.75C916.5 265.353 916.191 265 915.75 265C915.353 265 915 265.353 915 265.75C915 266.191 915.309 266.5 915.75 266.5Z" fill="white"/>
<path id="Vector_10" fill-rule="evenodd" clip-rule="evenodd" d="M843.75 1.5C844.147 1.5 844.5 1.14705 844.5 0.749993C844.5 0.352934 844.191 0 843.75 0C843.353 0 843 0.352934 843 0.749993C843 1.19117 843.309 1.5 843.75 1.5Z" fill="white"/>
<path id="Vector_11" fill-rule="evenodd" clip-rule="evenodd" d="M432.75 251.5C433.147 251.5 433.5 251.147 433.5 250.75C433.5 250.353 433.191 250 432.75 250C432.353 250 432 250.353 432 250.75C432 251.191 432.309 251.5 432.75 251.5Z" fill="white"/>
<path id="Vector_12" fill-rule="evenodd" clip-rule="evenodd" d="M482.75 317.5C483.147 317.5 483.5 317.147 483.5 316.75C483.5 316.353 483.191 316 482.75 316C482.353 316 482 316.353 482 316.75C482 317.191 482.309 317.5 482.75 317.5Z" fill="white"/>
<path id="Vector_13" fill-rule="evenodd" clip-rule="evenodd" d="M219.75 496.5C220.147 496.5 220.5 496.147 220.5 495.75C220.5 495.353 220.191 495 219.75 495C219.353 495 219 495.353 219 495.75C219 496.191 219.309 496.5 219.75 496.5Z" fill="white"/>
<path id="Vector_14" fill-rule="evenodd" clip-rule="evenodd" d="M740.844 118.777C741.291 118.777 741.688 118.359 741.688 117.889C741.688 117.418 741.34 117 740.844 117C740.397 117 740 117.418 740 117.889C740 118.411 740.348 118.777 740.844 118.777Z" fill="white"/>
</g>
</svg>
