<svg width="762" height="286" viewBox="0 0 762 286" fill="none" xmlns="http://www.w3.org/2000/svg">
<path fill-rule="evenodd" clip-rule="evenodd" d="M510.929 18.0513C499.323 18.0513 458.738 19.1607 447.167 21.8231C440.474 23.3762 389.636 22.4887 380.38 22.4887C364.68 22.4887 352.077 23.9864 336.876 23.9309C319.93 23.9309 297.252 29.6995 285.824 29.8659L200.702 37.2431C196.964 37.354 193.119 36.7993 189.453 37.4095C171.225 40.4602 163.729 36.8978 146 42.5C107.776 41.546 104.691 41.167 85.3243 45.5489C66.1354 49.9308 30.6422 45.4763 30.7846 100.5C30.8202 110.04 14.6555 151.233 12.8043 158C10.953 164.767 14.8335 170.164 12.8043 174.989C12.8043 198 6.76919 169 6.76919 192.5C3.84992 203.15 0.229521 213.697 0.336323 229.284C0.407525 247.477 0.33632 233.533 0.33632 242.63C0.33632 269.199 12.583 285.34 30.5971 285.34C38.4649 285.34 46.0479 282.844 52.634 281.402C60.4306 279.627 66.2692 278.184 73.8522 276.132C134.053 259.825 230.73 260.167 280.5 256.839C306.417 255.12 369.682 256.107 396.846 253.999C403.29 253.5 413.115 251.614 419.559 251.059C435.544 249.728 453.095 256.446 467.941 253.839C475.488 252.508 484.531 251.617 491.615 250.341L515.076 255.622C531.168 255.844 547.261 262.614 562 260.839C599.666 256.235 639.858 256.001 679.588 247.847C681.297 247.514 683.113 244.075 684.857 243.853C691.871 243.021 688.204 248.568 709.208 239.194C719.96 234.424 734.165 226.834 734.165 205.979C734.165 184.901 730.391 212.018 730.391 189.942C730.391 179.458 737.938 176.685 737.938 161.931C737.938 152.446 736.051 148.729 736.051 138.357C736.051 134.696 748.566 110.233 750.026 107.016C753.586 98.9736 757.067 103.114 757.067 83.9777C757.067 75.3803 754.575 70.4991 755.679 64.2313C758.776 46.5372 770.311 62.4009 751.407 20.6339C747.455 11.87 744.821 0 735.315 0C707.796 0 688.749 13.5341 644.55 15.2567C629.705 15.0903 605.164 12.5046 590.568 15.3889C587.364 15.999 582.486 16.2764 578.499 17.2193C562.692 20.8247 526.842 18.0513 510.929 18.0513Z" fill="#85CAD0"/>
<path d="M185.826 174.846C186.582 174.849 187.33 175.012 188.019 175.324C188.708 175.636 189.324 176.09 189.826 176.656L201.116 188.906C194.964 196.585 187.074 202.69 178.096 206.716C168.976 210.836 158.026 212.893 145.246 212.886C134.678 213.053 124.188 211.062 114.416 207.036C105.546 203.313 97.5671 197.75 91.0059 190.716C84.3979 183.515 79.3399 175.033 76.1459 165.796C72.6273 155.626 70.8885 144.926 71.0059 134.166C70.8784 123.3 72.8301 112.509 76.7559 102.376C80.3687 93.0311 85.8972 84.5457 92.9859 77.4656C100.075 70.3855 108.567 64.8673 117.916 61.2659C128.15 57.298 139.05 55.3292 150.026 55.4659C161.453 55.4659 171.453 57.2926 180.026 60.9459C188.213 64.3567 195.679 69.2907 202.026 75.4859L192.446 88.7959C191.857 89.6653 191.119 90.4237 190.266 91.0359C189.174 91.7469 187.887 92.0968 186.586 92.0359C184.754 91.9623 182.997 91.2875 181.586 90.1159C179.508 88.5988 177.337 87.2128 175.086 85.9659C171.902 84.2432 168.552 82.8493 165.086 81.8059C153.43 78.7247 141.101 79.3787 129.836 83.6759C123.896 86.1046 118.553 89.7927 114.176 94.4859C109.675 99.4284 106.216 105.227 104.006 111.536C101.464 118.805 100.222 126.466 100.336 134.166C100.203 142.024 101.445 149.845 104.006 157.276C106.194 163.542 109.592 169.318 114.006 174.276C118.115 178.837 123.164 182.454 128.806 184.876C134.595 187.346 140.832 188.596 147.126 188.546C150.67 188.57 154.211 188.356 157.726 187.906C160.695 187.532 163.62 186.862 166.456 185.906C169.098 184.994 171.633 183.797 174.016 182.336C176.542 180.772 178.913 178.971 181.096 176.956C181.77 176.344 182.523 175.826 183.336 175.416C184.111 175.038 184.963 174.843 185.826 174.846V174.846Z" fill="#131313"/>
<path d="M249.296 52.9059V211.166H223.006V52.9059H249.296Z" fill="#131313"/>
<path d="M306.916 87.8959C303.135 90.6816 298.562 92.1844 293.866 92.1844C289.17 92.1844 284.597 90.6816 280.816 87.8959H280.716V211.166H307.006V87.8959H306.916Z" fill="#131313"/>
<path d="M336.726 211.166V101.896H352.806C354.307 101.787 355.799 102.207 357.024 103.081C358.25 103.956 359.131 105.231 359.516 106.686L361.326 115.316C363.496 113.078 365.837 111.012 368.326 109.136C370.762 107.303 373.364 105.699 376.096 104.346C378.894 102.974 381.845 101.936 384.886 101.256C388.242 100.523 391.67 100.167 395.106 100.196C400.547 100.083 405.952 101.105 410.976 103.196C415.427 105.11 419.376 108.026 422.516 111.716C425.698 115.573 428.078 120.027 429.516 124.816C431.159 130.256 431.965 135.914 431.906 141.596V211.136H405.606V141.626C405.606 134.959 404.059 129.793 400.966 126.126C397.873 122.459 393.243 120.633 387.076 120.646C382.64 120.624 378.266 121.678 374.326 123.716C370.14 125.924 366.321 128.768 363.006 132.146V211.146L336.726 211.166Z" fill="#131313"/>
<path d="M485.726 87.8959C481.945 90.6816 477.372 92.1844 472.676 92.1844C467.98 92.1844 463.407 90.6816 459.626 87.8959H459.526V211.166H485.836V87.8959H485.726Z" fill="#131313"/>
<path d="M520.226 211.166V121.716L510.746 120.226C508.917 119.984 507.188 119.247 505.746 118.096C505.121 117.538 504.629 116.846 504.307 116.073C503.985 115.299 503.841 114.463 503.886 113.626V102.856H520.176V94.7658C520.091 89.0306 521.05 83.3279 523.006 77.9358C524.743 73.1435 527.531 68.8007 531.164 65.2258C534.798 61.6509 539.186 58.9345 544.006 57.2758C549.466 55.3601 555.221 54.4224 561.006 54.5059C565.767 54.4565 570.508 55.1309 575.066 56.5059L574.536 69.7158C574.565 70.5857 574.297 71.4395 573.775 72.136C573.253 72.8325 572.509 73.3299 571.666 73.5458C569.65 74.0762 567.571 74.3286 565.486 74.2958C562.667 74.2567 559.856 74.593 557.126 75.2958C554.784 75.9165 552.64 77.1246 550.896 78.8058C549.083 80.6612 547.748 82.9297 547.006 85.4159C546.044 88.7176 545.595 92.1477 545.676 95.5858V102.826H574.116V121.566H546.536V211.136L520.226 211.166Z" fill="#131313"/>
<path d="M629.006 241.196C628.381 242.832 627.349 244.281 626.006 245.406C624.766 246.366 622.866 246.846 620.306 246.846H600.636L621.076 203.076L576.886 101.896H599.886C601.646 101.78 603.388 102.31 604.786 103.386C605.874 104.325 606.748 105.488 607.346 106.796L630.666 163.456C631.447 165.331 632.115 167.251 632.666 169.206C633.239 171.206 633.736 173.206 634.156 175.206C634.726 173.146 635.346 171.206 636.026 169.206C636.706 167.206 637.426 165.336 638.206 163.346L660.146 106.796C660.718 105.373 661.7 104.151 662.966 103.286C664.255 102.366 665.803 101.88 667.386 101.896H688.476L629.006 241.196Z" fill="#131313"/>
<path d="M451.576 64.0558H405.086V54.3558C405.085 53.7275 404.908 53.112 404.575 52.5792C404.242 52.0464 403.766 51.6177 403.202 51.3417C402.637 51.0658 402.007 50.9536 401.382 51.0179C400.757 51.0823 400.162 51.3206 399.666 51.7058L384.226 63.7058L368.766 51.7058C368.27 51.3235 367.676 51.0877 367.053 51.0249C366.429 50.9621 365.801 51.0749 365.238 51.3505C364.675 51.6262 364.201 52.0537 363.868 52.5847C363.536 53.1158 363.358 53.7293 363.356 54.3558V64.0558H315.006C315.59 66.0536 315.886 68.1244 315.886 70.2058C315.886 70.8725 315.856 71.5225 315.796 72.1558H363.386V80.3458C363.381 80.9607 363.544 81.5653 363.858 82.0941C364.171 82.6229 364.624 83.0557 365.166 83.3458C365.648 83.6057 366.188 83.7398 366.736 83.7358C367.401 83.7414 368.053 83.5462 368.606 83.1758L384.226 72.7158L399.866 83.1758C400.416 83.5437 401.064 83.7388 401.726 83.7358C402.277 83.7424 402.821 83.6081 403.306 83.3458C403.85 83.0575 404.303 82.625 404.617 82.0958C404.931 81.5666 405.093 80.9611 405.086 80.3458V72.1558H450.786C450.726 71.4892 450.696 70.8391 450.696 70.2058C450.696 68.1244 450.992 66.0536 451.576 64.0558V64.0558ZM370.066 74.0558V61.2058L378.956 68.1258L370.066 74.0558ZM398.376 74.0558L389.486 68.1058L398.376 61.1858V74.0558Z" fill="#131313"/>
<path d="M305.856 70.2058C305.856 72.5792 305.152 74.8993 303.834 76.8727C302.515 78.846 300.641 80.3841 298.448 81.2924C296.255 82.2006 293.843 82.4383 291.515 81.9753C289.187 81.5122 287.049 80.3693 285.371 78.6911C283.692 77.0129 282.549 74.8747 282.086 72.5469C281.623 70.2191 281.861 67.8063 282.769 65.6136C283.678 63.4209 285.216 61.5468 287.189 60.2282C289.162 58.9096 291.483 58.2058 293.856 58.2058C297.038 58.2058 300.091 59.4701 302.341 61.7206C304.592 63.971 305.856 67.0232 305.856 70.2058Z" fill="#131313"/>
<path d="M484.666 70.2058C484.666 72.5792 483.962 74.8993 482.644 76.8727C481.325 78.846 479.451 80.3841 477.258 81.2924C475.065 82.2006 472.653 82.4383 470.325 81.9753C467.997 81.5122 465.859 80.3693 464.181 78.6911C462.502 77.0129 461.36 74.8747 460.897 72.5469C460.433 70.2191 460.671 67.8063 461.579 65.6136C462.488 63.4209 464.026 61.5468 465.999 60.2282C467.972 58.9096 470.293 58.2058 472.666 58.2058C475.849 58.2058 478.901 59.4701 481.151 61.7206C483.402 63.971 484.666 67.0232 484.666 70.2058Z" fill="#131313"/>
</svg>
